<!-- Created with Inkscape (http://www.inkscape.org/) --><svg xmlns:dc="http://purl.org/dc/elements/1.1/" xmlns:cc="http://creativecommons.org/ns#" xmlns:rdf="http://www.w3.org/1999/02/22-rdf-syntax-ns#" xmlns:svg="http://www.w3.org/2000/svg" xmlns="http://www.w3.org/2000/svg" xmlns:sodipodi="http://sodipodi.sourceforge.net/DTD/sodipodi-0.dtd" xmlns:inkscape="http://www.inkscape.org/namespaces/inkscape" width="193.61609mm" height="70.153458mm" viewBox="0 0 193.61609 70.153458" version="1.1" id="svg8" inkscape:version="0.92.4 (5da689c313, 2019-01-14)" sodipodi:docname="stranger-things-logo-separated.tar">
  <defs id="defs2">
    <clipPath clipPathUnits="userSpaceOnUse" id="clipPath18">
      <path d="M 0,595.28 H 841.89 V 0 H 0 Z" id="path16" inkscape:connector-curvature="0"/>
    </clipPath>
  </defs>
  <sodipodi:namedview id="base" pagecolor="#ffffff" bordercolor="#666666" borderopacity="1.0" inkscape:pageopacity="0.0" inkscape:pageshadow="2" inkscape:zoom="0.98994949" inkscape:cx="334.28575" inkscape:cy="185.43587" inkscape:document-units="mm" inkscape:current-layer="layer25" showgrid="false" fit-margin-top="0" fit-margin-left="0" fit-margin-right="0" fit-margin-bottom="0" inkscape:window-width="1920" inkscape:window-height="1017" inkscape:window-x="-8" inkscape:window-y="-8" inkscape:window-maximized="1"/>
  <metadata id="metadata5">
    <rdf:RDF>
      <cc:Work rdf:about="">
        <dc:format>image/svg+xml</dc:format>
        <dc:type rdf:resource="http://purl.org/dc/dcmitype/StillImage"/>
        <dc:title/>
      </cc:Work>
    </rdf:RDF>
  </metadata>
  <svg:g inkscape:groupmode="layer" id="layer12" inkscape:label="A1" style="display:inline">
    <svg:path inkscape:connector-curvature="0" id="path906" d="m 259.01953,120.36328 v 11.13867 h 8.02344 13.3457 v -3.93554 c -1.128,-0.21334 -2.13732,-0.61937 -3.02929,-1.22071 -0.89067,-0.60266 -1.6923,-1.54236 -2.4043,-2.81836 -0.29867,-0.56533 -0.44531,-1.59598 -0.44531,-3.08398 0,-3.04667 0.38672,-5.84644 1.16406,-8.39844 l 6.28906,-21.603514 c 2.02267,0 4.59351,0.335813 7.71484,1.007813 3.12134,0.672 5.48451,1.431916 7.08985,2.28125 4.104,2.192 7.8191,5.514707 11.14844,9.970701 3.09066,4.104 4.84633,7.81796 5.26367,11.14063 0.11866,0.708 0.17773,1.69737 0.17773,2.9707 0,3.82 -1.18978,6.58134 -3.56445,8.27734 -0.77333,0.49467 -1.93061,0.92011 -3.47461,1.27344 v 4.13867 h 38.44726 4.16602 v -5.55468 c -0.24,-0.17067 -0.48033,-0.33869 -0.73633,-0.55469 -0.712,-0.60134 -1.45589,-1.6481 -2.22656,-3.13477 -0.23867,-0.49466 -0.56642,-1.16691 -0.98242,-2.01758 L 321.82227,37.279297 c -0.356,-1.273333 -0.56572,-1.981714 -0.62305,-2.123047 -0.17867,-0.708 -0.26758,-1.345443 -0.26758,-1.912109 0,-0.565334 0.1168,-1.132552 0.35547,-1.699219 0.53467,-1.202667 1.51412,-1.804688 2.93945,-1.804688 v -4.679687 h -39.4707 v 4.041015 c 0.41467,0.141334 0.81646,0.317297 1.20312,0.529297 0.38534,0.213334 0.76959,0.658698 1.15625,1.332032 0.38667,0.673333 0.58008,1.506047 0.58008,2.498047 0,0.709331 -0.12009,1.487223 -0.35742,2.33789 -0.23733,0.850667 -0.50416,1.702688 -0.79883,2.554688 l -24.68359,75.601564 c -0.71333,2.33866 -1.45785,4.16261 -2.22852,5.47461 -0.18,0.30666 -0.38475,0.61892 -0.60742,0.93359 z m 35.98633,-73.386718 9.97656,37.650391 c -1.12666,-0.993333 -2.58009,-2.054786 -4.35742,-3.189453 -2.43067,-1.488 -4.68253,-2.587542 -6.75586,-3.296875 -2.07467,-0.708 -3.64427,-1.097922 -4.71094,-1.169922 -1.06533,-0.068 -1.95597,-0.105469 -2.66797,-0.105469 z" style="display:inline;fill:#eb3c3e;fill-opacity:1;fill-rule:nonzero;stroke:none;stroke-width:1.33333325" transform="scale(0.26458333)"/>
  </svg:g>
  </svg>