<!-- Created with Inkscape (http://www.inkscape.org/) --><svg xmlns:dc="http://purl.org/dc/elements/1.1/" xmlns:cc="http://creativecommons.org/ns#" xmlns:rdf="http://www.w3.org/1999/02/22-rdf-syntax-ns#" xmlns:svg="http://www.w3.org/2000/svg" xmlns="http://www.w3.org/2000/svg" xmlns:sodipodi="http://sodipodi.sourceforge.net/DTD/sodipodi-0.dtd" xmlns:inkscape="http://www.inkscape.org/namespaces/inkscape" width="193.61609mm" height="70.153458mm" viewBox="0 0 193.61609 70.153458" version="1.1" id="svg8" inkscape:version="0.92.4 (5da689c313, 2019-01-14)" sodipodi:docname="stranger-things-logo-separated.tar">
  <defs id="defs2">
    <clipPath clipPathUnits="userSpaceOnUse" id="clipPath18">
      <path d="M 0,595.28 H 841.89 V 0 H 0 Z" id="path16" inkscape:connector-curvature="0"/>
    </clipPath>
  </defs>
  <sodipodi:namedview id="base" pagecolor="#ffffff" bordercolor="#666666" borderopacity="1.0" inkscape:pageopacity="0.0" inkscape:pageshadow="2" inkscape:zoom="0.98994949" inkscape:cx="334.28575" inkscape:cy="185.43587" inkscape:document-units="mm" inkscape:current-layer="layer25" showgrid="false" fit-margin-top="0" fit-margin-left="0" fit-margin-right="0" fit-margin-bottom="0" inkscape:window-width="1920" inkscape:window-height="1017" inkscape:window-x="-8" inkscape:window-y="-8" inkscape:window-maximized="1"/>
  <metadata id="metadata5">
    <rdf:RDF>
      <cc:Work rdf:about="">
        <dc:format>image/svg+xml</dc:format>
        <dc:type rdf:resource="http://purl.org/dc/dcmitype/StillImage"/>
        <dc:title/>
      </cc:Work>
    </rdf:RDF>
  </metadata>
  <svg:g inkscape:groupmode="layer" id="layer15" inkscape:label="E1">
    <svg:path inkscape:connector-curvature="0" id="path915" style="display:inline;fill:#eb3c3e;fill-opacity:1;fill-rule:nonzero;stroke:none" d="m 0,0 c 0.936,-0.106 1.781,-0.292 2.539,-0.558 l 2.272,-0.797 8.687,30.543 -2.271,1.356 C 10.469,27.036 8.688,23.394 5.881,19.618 3.385,16.216 0.779,13.584 -1.937,11.724 -3.766,10.5 -5.781,9.517 -7.986,8.772 c -2.205,-0.745 -4.356,-1.116 -6.448,-1.116 -1.916,0 -3.609,0.331 -5.08,0.997 -1.468,0.664 -2.605,1.66 -3.408,2.991 -0.801,1.328 -1.314,2.604 -1.537,3.828 -0.223,1.222 -0.334,2.711 -0.334,4.465 v 1.277 1.914 22.809 h 8.555 c 0.978,0 2.181,-0.36 3.607,-1.077 1.426,-0.718 2.695,-1.663 3.811,-2.832 1.111,-1.17 2.115,-2.765 3.006,-4.785 0.712,-1.648 1.158,-3.004 1.337,-4.066 l 2.54,0.478 -4.479,30.385 -2.004,-0.719 v -1.195 c 0,-2.287 -0.756,-4.227 -2.264,-5.822 -0.754,-0.745 -1.541,-1.264 -2.361,-1.555 -0.822,-0.293 -1.676,-0.439 -2.562,-0.439 h -9.385 v 8.693 c 0,1.646 0.187,3.082 0.568,4.307 0.377,1.222 1.035,2.258 1.971,3.109 1.426,1.277 3.631,1.914 6.615,1.914 2.674,0 5.391,-0.531 8.152,-1.594 2.762,-1.064 5.147,-2.633 7.151,-4.706 3.474,-3.669 5.724,-8.134 6.75,-13.397 L 8.42,54.629 3.541,81.585 C 2.783,81.229 2.182,81.001 1.738,80.9 1.648,80.9 1.047,80.8 -0.066,80.598 -2.205,80.191 -4.1,79.989 -5.748,79.989 H -6.949 -51.055 V 76.88 c 0.981,0 1.739,-0.094 2.272,-0.279 0.535,-0.188 1.07,-0.639 1.605,-1.356 0.533,-0.719 0.856,-1.435 0.969,-2.154 0.109,-0.717 0.166,-1.768 0.166,-3.151 V 69.063 12.441 c 0,-1.649 -0.1,-2.991 -0.301,-4.028 -0.199,-1.036 -0.658,-2.06 -1.369,-3.07 -0.535,-0.692 -0.992,-1.156 -1.371,-1.395 -0.379,-0.24 -1.236,-0.492 -2.572,-0.758 V 0.159 H -2.941 C -1.916,0.159 -0.936,0.107 0,0" transform="matrix(0.35277777,0,0,-0.35277777,157.20772,34.84908)"/>
  </svg:g>
  </svg>