<!-- Created with Inkscape (http://www.inkscape.org/) --><svg xmlns:dc="http://purl.org/dc/elements/1.1/" xmlns:cc="http://creativecommons.org/ns#" xmlns:rdf="http://www.w3.org/1999/02/22-rdf-syntax-ns#" xmlns:svg="http://www.w3.org/2000/svg" xmlns="http://www.w3.org/2000/svg" xmlns:sodipodi="http://sodipodi.sourceforge.net/DTD/sodipodi-0.dtd" xmlns:inkscape="http://www.inkscape.org/namespaces/inkscape" width="193.61609mm" height="70.153458mm" viewBox="0 0 193.61609 70.153458" version="1.1" id="svg8" inkscape:version="0.92.4 (5da689c313, 2019-01-14)" sodipodi:docname="stranger-things-logo-separated.tar">
  <defs id="defs2">
    <clipPath clipPathUnits="userSpaceOnUse" id="clipPath18">
      <path d="M 0,595.28 H 841.89 V 0 H 0 Z" id="path16" inkscape:connector-curvature="0"/>
    </clipPath>
  </defs>
  <sodipodi:namedview id="base" pagecolor="#ffffff" bordercolor="#666666" borderopacity="1.0" inkscape:pageopacity="0.0" inkscape:pageshadow="2" inkscape:zoom="0.98994949" inkscape:cx="334.28575" inkscape:cy="185.43587" inkscape:document-units="mm" inkscape:current-layer="layer25" showgrid="false" fit-margin-top="0" fit-margin-left="0" fit-margin-right="0" fit-margin-bottom="0" inkscape:window-width="1920" inkscape:window-height="1017" inkscape:window-x="-8" inkscape:window-y="-8" inkscape:window-maximized="1"/>
  <metadata id="metadata5">
    <rdf:RDF>
      <cc:Work rdf:about="">
        <dc:format>image/svg+xml</dc:format>
        <dc:type rdf:resource="http://purl.org/dc/dcmitype/StillImage"/>
        <dc:title/>
      </cc:Work>
    </rdf:RDF>
  </metadata>
  <svg:g inkscape:groupmode="layer" id="layer14" inkscape:label="G1" style="display:inline">
    <svg:path inkscape:connector-curvature="0" id="path912" style="display:inline;fill:#eb3c3e;fill-opacity:1;fill-rule:nonzero;stroke:none" d="m 0,0 c 0,1.645 0.1,2.998 0.301,4.061 0.201,1.06 0.656,2.043 1.369,2.945 1.338,1.805 2.918,2.707 4.746,2.707 v 2.711 h -32.01 V 9.473 h 1.069 c 1.293,0 2.449,-0.584 3.474,-1.75 0.535,-0.637 0.903,-1.3 1.104,-1.991 0.201,-0.69 0.301,-1.936 0.301,-3.74 v -19.018 c 0,-3.13 -0.581,-5.625 -1.739,-7.482 -1.381,-2.176 -3.519,-3.262 -6.414,-3.262 -6.506,0 -11.762,3.879 -15.771,11.643 -3.432,6.592 -5.145,13.902 -5.145,21.932 0,0.637 0.01,1.169 0.033,1.594 0.022,0.425 0.055,0.878 0.1,1.357 0.623,7.814 2.34,14.195 5.146,19.14 3.385,5.954 7.997,8.931 13.832,8.931 3.743,0 7.997,-1.307 12.764,-3.924 1.914,-1.069 3.83,-2.964 5.746,-5.686 2.496,-3.525 4.121,-6.569 4.879,-9.131 l 1.67,1.039 -2.738,27.432 c -0.803,-0.745 -1.582,-1.489 -2.34,-2.233 -0.981,-0.638 -2.25,-0.957 -3.809,-0.957 -1.381,0 -2.896,0.211 -4.545,0.638 -3.207,0.798 -6.058,1.368 -8.552,1.715 -2.496,0.344 -5.168,0.518 -8.02,0.518 -5.258,0 -10.09,-0.785 -14.5,-2.353 -4.412,-1.569 -8.287,-4.055 -11.629,-7.456 -2.494,-2.596 -4.521,-5.505 -6.097,-8.716 v -40.307 c 1.095,-2.569 2.388,-5 3.892,-7.281 4.098,-6.221 9.112,-10.527 15.035,-12.92 4.768,-1.914 11.16,-2.871 19.18,-2.871 H 4.744 v 3.025 c -1.068,0.319 -1.883,0.676 -2.439,1.075 -0.557,0.398 -1.059,1.074 -1.502,2.03 -0.448,0.954 -0.715,1.884 -0.803,2.786 v 3.025 z" transform="matrix(0.35277777,0,0,-0.35277777,136.79829,22.210747)"/>
  </svg:g>
  </svg>