<!-- Created with Inkscape (http://www.inkscape.org/) --><svg xmlns:dc="http://purl.org/dc/elements/1.1/" xmlns:cc="http://creativecommons.org/ns#" xmlns:rdf="http://www.w3.org/1999/02/22-rdf-syntax-ns#" xmlns:svg="http://www.w3.org/2000/svg" xmlns="http://www.w3.org/2000/svg" xmlns:sodipodi="http://sodipodi.sourceforge.net/DTD/sodipodi-0.dtd" xmlns:inkscape="http://www.inkscape.org/namespaces/inkscape" width="193.61609mm" height="70.153458mm" viewBox="0 0 193.61609 70.153458" version="1.1" id="svg8" inkscape:version="0.92.4 (5da689c313, 2019-01-14)" sodipodi:docname="stranger-things-logo-separated.tar">
  <defs id="defs2">
    <clipPath clipPathUnits="userSpaceOnUse" id="clipPath18">
      <path d="M 0,595.28 H 841.89 V 0 H 0 Z" id="path16" inkscape:connector-curvature="0"/>
    </clipPath>
  </defs>
  <sodipodi:namedview id="base" pagecolor="#ffffff" bordercolor="#666666" borderopacity="1.0" inkscape:pageopacity="0.0" inkscape:pageshadow="2" inkscape:zoom="0.98994949" inkscape:cx="334.28575" inkscape:cy="185.43587" inkscape:document-units="mm" inkscape:current-layer="layer25" showgrid="false" fit-margin-top="0" fit-margin-left="0" fit-margin-right="0" fit-margin-bottom="0" inkscape:window-width="1920" inkscape:window-height="1017" inkscape:window-x="-8" inkscape:window-y="-8" inkscape:window-maximized="1"/>
  <metadata id="metadata5">
    <rdf:RDF>
      <cc:Work rdf:about="">
        <dc:format>image/svg+xml</dc:format>
        <dc:type rdf:resource="http://purl.org/dc/dcmitype/StillImage"/>
        <dc:title/>
      </cc:Work>
    </rdf:RDF>
  </metadata>
  <svg:g inkscape:groupmode="layer" id="layer21" inkscape:label="G2">
    <svg:path inkscape:connector-curvature="0" id="path936" style="display:inline;fill:#eb3c3e;fill-opacity:1;fill-rule:nonzero;stroke:none" d="m 0,0 c -0.447,0.955 -0.715,1.885 -0.803,2.787 v 3.025 23.725 c 0,1.645 0.1,2.998 0.301,4.059 0.201,1.062 0.656,2.045 1.369,2.947 1.338,1.803 2.918,2.705 4.746,2.705 v 2.713 H -26.396 V 39.01 h 1.068 c 1.293,0 2.449,-0.584 3.474,-1.752 0.536,-0.637 0.903,-1.299 1.104,-1.988 0.201,-0.692 0.301,-1.938 0.301,-3.741 V 12.51 c 0,-3.131 -0.58,-5.625 -1.738,-7.481 -1.381,-2.175 -3.52,-3.263 -6.415,-3.263 -6.505,0 -11.761,3.88 -15.771,11.644 -3.432,6.592 -5.145,13.902 -5.145,21.932 0,0.637 0.01,1.168 0.034,1.594 0.021,0.425 0.054,0.877 0.099,1.355 0.623,7.816 2.34,14.195 5.147,19.141 3.384,5.953 7.996,8.931 13.832,8.931 3.742,0 7.996,-1.308 12.763,-3.924 1.914,-1.068 3.83,-2.964 5.747,-5.687 2.496,-3.523 4.121,-6.568 4.878,-9.129 l 1.67,1.039 -2.738,27.432 c -0.803,-0.746 -1.582,-1.49 -2.34,-2.235 -0.98,-0.636 -2.25,-0.957 -3.808,-0.957 -1.381,0 -2.897,0.213 -4.545,0.639 -3.207,0.797 -6.059,1.369 -8.553,1.715 -2.496,0.346 -5.168,0.517 -8.02,0.517 -5.257,0 -10.089,-0.785 -14.5,-2.351 -4.412,-1.568 -8.287,-4.055 -11.628,-7.457 -2.495,-2.596 -4.522,-5.504 -6.098,-8.715 V 16.941 c 1.096,-2.568 2.389,-4.998 3.892,-7.279 4.098,-6.221 9.112,-10.527 15.036,-12.92 4.767,-1.914 11.16,-2.871 19.179,-2.871 H 3.941 v 3.025 C 2.873,-2.785 2.059,-2.428 1.502,-2.029 0.945,-1.633 0.443,-0.955 0,0" transform="matrix(0.35277777,0,0,-0.35277777,138.13984,67.221627)"/>
  </svg:g>
  </svg>