<!-- Created with Inkscape (http://www.inkscape.org/) --><svg xmlns:dc="http://purl.org/dc/elements/1.1/" xmlns:cc="http://creativecommons.org/ns#" xmlns:rdf="http://www.w3.org/1999/02/22-rdf-syntax-ns#" xmlns:svg="http://www.w3.org/2000/svg" xmlns="http://www.w3.org/2000/svg" xmlns:sodipodi="http://sodipodi.sourceforge.net/DTD/sodipodi-0.dtd" xmlns:inkscape="http://www.inkscape.org/namespaces/inkscape" width="193.61609mm" height="70.153458mm" viewBox="0 0 193.61609 70.153458" version="1.1" id="svg8" inkscape:version="0.92.4 (5da689c313, 2019-01-14)" sodipodi:docname="stranger-things-logo-separated.tar">
  <defs id="defs2">
    <clipPath clipPathUnits="userSpaceOnUse" id="clipPath18">
      <path d="M 0,595.28 H 841.89 V 0 H 0 Z" id="path16" inkscape:connector-curvature="0"/>
    </clipPath>
  </defs>
  <sodipodi:namedview id="base" pagecolor="#ffffff" bordercolor="#666666" borderopacity="1.0" inkscape:pageopacity="0.0" inkscape:pageshadow="2" inkscape:zoom="0.98994949" inkscape:cx="334.28575" inkscape:cy="185.43587" inkscape:document-units="mm" inkscape:current-layer="layer25" showgrid="false" fit-margin-top="0" fit-margin-left="0" fit-margin-right="0" fit-margin-bottom="0" inkscape:window-width="1920" inkscape:window-height="1017" inkscape:window-x="-8" inkscape:window-y="-8" inkscape:window-maximized="1"/>
  <metadata id="metadata5">
    <rdf:RDF>
      <cc:Work rdf:about="">
        <dc:format>image/svg+xml</dc:format>
        <dc:type rdf:resource="http://purl.org/dc/dcmitype/StillImage"/>
        <dc:title/>
      </cc:Work>
    </rdf:RDF>
  </metadata>
  <svg:g inkscape:groupmode="layer" id="layer18" inkscape:label="H1" style="display:inline">
    <svg:path inkscape:connector-curvature="0" id="path927" style="display:inline;fill:#eb3c3e;fill-opacity:1;fill-rule:nonzero;stroke:none" d="M 0,0 C 0.806,-0.156 1.409,-0.287 1.812,-0.391 2.93,-0.754 3.691,-1.246 4.094,-1.871 4.675,-2.805 5.089,-3.818 5.336,-4.91 5.581,-6 5.705,-7.947 5.705,-10.754 v -7.168 h -20.068 v 7.402 c 0,3.584 0.692,6.442 2.08,8.571 0.492,0.728 1.163,1.234 2.013,1.519 C -9.42,-0.145 -8.726,0 -8.188,0 V 3.039 H -40.54 V 0 c 1.029,-0.156 1.879,-0.402 2.551,-0.74 0.671,-0.338 1.275,-0.936 1.811,-1.793 0.537,-0.858 0.873,-1.701 1.007,-2.531 0.135,-0.832 0.202,-2.104 0.202,-3.819 v -1.092 l 0.134,-50.959 c 0,-1.712 -0.225,-3.519 -0.671,-5.414 -0.448,-1.898 -0.895,-3.078 -1.343,-3.547 -0.85,-0.83 -1.443,-1.337 -1.778,-1.519 -0.336,-0.182 -0.951,-0.377 -1.846,-0.584 v -2.961 H -8.39 v 3.039 c -1.836,0 -3.356,0.805 -4.564,2.412 -0.627,0.881 -1.019,1.737 -1.175,2.567 -0.157,0.83 -0.234,1.97 -0.234,3.421 v 37.651 H 5.57 v -37.805 c 0,-1.246 -0.1,-2.347 -0.301,-3.306 -0.202,-0.959 -0.571,-1.829 -1.108,-2.606 -1.119,-1.557 -2.617,-2.334 -4.497,-2.334 v -3.039 h 32.553 v 3.039 c -1.701,0 -3.043,0.57 -4.028,1.713 -0.492,0.623 -0.861,1.57 -1.107,2.84 -0.246,1.271 -0.369,2.66 -0.369,4.166 l -0.134,52.93 c 0,1.71 0.101,3.189 0.302,4.435 0.201,1.246 0.614,2.389 1.242,3.426 0.626,1.037 1.431,1.713 2.416,2.023 0.581,0.104 1.185,0.235 1.813,0.391 V 3.039 H 0 Z" transform="matrix(0.35277777,0,0,-0.35277777,66.673058,42.939899)"/>
  </svg:g>
  </svg>