<!-- Created with Inkscape (http://www.inkscape.org/) --><svg xmlns:dc="http://purl.org/dc/elements/1.1/" xmlns:cc="http://creativecommons.org/ns#" xmlns:rdf="http://www.w3.org/1999/02/22-rdf-syntax-ns#" xmlns:svg="http://www.w3.org/2000/svg" xmlns="http://www.w3.org/2000/svg" xmlns:sodipodi="http://sodipodi.sourceforge.net/DTD/sodipodi-0.dtd" xmlns:inkscape="http://www.inkscape.org/namespaces/inkscape" width="193.61609mm" height="70.153458mm" viewBox="0 0 193.61609 70.153458" version="1.1" id="svg8" inkscape:version="0.92.4 (5da689c313, 2019-01-14)" sodipodi:docname="stranger-things-logo-separated.tar">
  <defs id="defs2">
    <clipPath clipPathUnits="userSpaceOnUse" id="clipPath18">
      <path d="M 0,595.28 H 841.89 V 0 H 0 Z" id="path16" inkscape:connector-curvature="0"/>
    </clipPath>
  </defs>
  <sodipodi:namedview id="base" pagecolor="#ffffff" bordercolor="#666666" borderopacity="1.0" inkscape:pageopacity="0.0" inkscape:pageshadow="2" inkscape:zoom="0.98994949" inkscape:cx="334.28575" inkscape:cy="185.43587" inkscape:document-units="mm" inkscape:current-layer="layer25" showgrid="false" fit-margin-top="0" fit-margin-left="0" fit-margin-right="0" fit-margin-bottom="0" inkscape:window-width="1920" inkscape:window-height="1017" inkscape:window-x="-8" inkscape:window-y="-8" inkscape:window-maximized="1"/>
  <metadata id="metadata5">
    <rdf:RDF>
      <cc:Work rdf:about="">
        <dc:format>image/svg+xml</dc:format>
        <dc:type rdf:resource="http://purl.org/dc/dcmitype/StillImage"/>
        <dc:title/>
      </cc:Work>
    </rdf:RDF>
  </metadata>
  <svg:g inkscape:groupmode="layer" id="layer19" inkscape:label="I1">
    <svg:path d="M 0,0 C 1.253,-0.209 2.215,-0.455 2.887,-0.74 3.558,-1.025 4.071,-1.455 4.43,-2.025 5.102,-3.063 5.526,-4.23 5.705,-5.527 5.884,-6.826 5.974,-8.59 5.974,-10.82 v -52.619 c 0,-1.297 -0.101,-2.415 -0.302,-3.348 C 5.471,-67.721 5.078,-68.576 4.497,-69.355 3.289,-71.068 1.789,-71.924 0,-71.924 v -3.039 h 32.553 v 3.039 c -0.851,0 -1.611,0.194 -2.282,0.584 -0.671,0.389 -1.253,0.869 -1.746,1.44 -0.492,0.572 -0.861,1.492 -1.107,2.763 -0.246,1.272 -0.369,2.66 -0.369,4.164 v 52.387 c 0,1.918 0.078,3.488 0.235,4.707 0.156,1.221 0.548,2.324 1.175,3.309 0.446,0.726 0.916,1.258 1.409,1.595 0.492,0.338 1.432,0.663 2.82,0.975 V 3.035 H 0 Z" style="display:inline;fill:#eb3c3e;fill-opacity:1;fill-rule:nonzero;stroke:none" id="path930" inkscape:connector-curvature="0" transform="matrix(0.35277777,0,0,-0.35277777,79.346528,42.938523)"/>
  </svg:g>
  </svg>