<!-- Created with Inkscape (http://www.inkscape.org/) --><svg xmlns:dc="http://purl.org/dc/elements/1.1/" xmlns:cc="http://creativecommons.org/ns#" xmlns:rdf="http://www.w3.org/1999/02/22-rdf-syntax-ns#" xmlns:svg="http://www.w3.org/2000/svg" xmlns="http://www.w3.org/2000/svg" xmlns:sodipodi="http://sodipodi.sourceforge.net/DTD/sodipodi-0.dtd" xmlns:inkscape="http://www.inkscape.org/namespaces/inkscape" width="193.61609mm" height="70.153458mm" viewBox="0 0 193.61609 70.153458" version="1.1" id="svg8" inkscape:version="0.92.4 (5da689c313, 2019-01-14)" sodipodi:docname="stranger-things-logo-separated.tar">
  <defs id="defs2">
    <clipPath clipPathUnits="userSpaceOnUse" id="clipPath18">
      <path d="M 0,595.28 H 841.89 V 0 H 0 Z" id="path16" inkscape:connector-curvature="0"/>
    </clipPath>
  </defs>
  <sodipodi:namedview id="base" pagecolor="#ffffff" bordercolor="#666666" borderopacity="1.0" inkscape:pageopacity="0.0" inkscape:pageshadow="2" inkscape:zoom="0.98994949" inkscape:cx="334.28575" inkscape:cy="185.43587" inkscape:document-units="mm" inkscape:current-layer="layer25" showgrid="false" fit-margin-top="0" fit-margin-left="0" fit-margin-right="0" fit-margin-bottom="0" inkscape:window-width="1920" inkscape:window-height="1017" inkscape:window-x="-8" inkscape:window-y="-8" inkscape:window-maximized="1"/>
  <metadata id="metadata5">
    <rdf:RDF>
      <cc:Work rdf:about="">
        <dc:format>image/svg+xml</dc:format>
        <dc:type rdf:resource="http://purl.org/dc/dcmitype/StillImage"/>
        <dc:title/>
      </cc:Work>
    </rdf:RDF>
  </metadata>
  <svg:g inkscape:groupmode="layer" id="layer13" inkscape:label="N1" style="display:inline">
    <svg:path inkscape:connector-curvature="0" id="path909" d="m 348.93164,125.94727 v 5.55468 h 3.54102 18.2207 v -4.14453 c -1.408,-0.28133 -2.55102,-0.72484 -3.42969,-1.32617 -0.88133,-0.60133 -1.56969,-1.46885 -2.06836,-2.60352 -0.49866,-1.132 -0.85069,-2.31797 -1.05469,-3.55664 -0.20799,-1.24 -0.30859,-2.74167 -0.30859,-4.51367 l 0.0899,-71.158201 40.9082,57.351561 c 2.37333,3.328 3.97402,5.94676 4.80469,7.85742 1.244,2.76134 1.86718,5.70174 1.86718,8.81641 0,4.67467 -1.45652,7.57698 -4.36718,8.70898 -0.77334,0.284 -1.54379,0.42383 -2.31446,0.42383 v 4.14453 h 26.9043 v -4.14648 c -1.24667,-0.13867 -2.38907,-0.54604 -3.42773,-1.2207 -1.03867,-0.67067 -1.84287,-1.5737 -2.40821,-2.70704 -0.56533,-1.13333 -0.93399,-2.46108 -1.11133,-3.98242 -0.18,-1.52266 -0.26757,-2.85237 -0.26757,-3.98437 V 44.710938 c 0,-1.981334 0.13239,-4.159251 0.40039,-6.53125 0.268,-2.373334 0.93519,-4.375287 2.00586,-6.001954 0.89066,-1.346666 1.86878,-2.195494 2.93945,-2.548828 0.71333,-0.142666 1.42534,-0.284448 2.13867,-0.425781 v -4.142578 h -26.9082 v 4.146484 c 1.44266,0.213334 2.65839,0.586521 3.65039,1.117188 0.992,0.530666 1.84702,1.381448 2.56836,2.550781 0.72133,1.169333 1.17094,2.253474 1.34961,3.244141 0.18,0.994666 0.27343,2.446041 0.27343,4.359375 v 1.27539 24.033203 l -17.9102,-26.796875 c -0.59334,-0.921333 -1.01072,-1.665041 -1.24805,-2.234375 -0.53333,-1.202666 -0.80078,-2.301588 -0.80078,-3.294921 0,-0.708 0.20767,-1.399553 0.625,-2.074219 0.41333,-0.672 0.84568,-1.203084 1.29102,-1.59375 0.44533,-0.389334 0.9633,-0.585938 1.55664,-0.585938 v -4.146484 h -50.96289 v 4.146484 c 2.196,0.357334 3.91996,1.34661 5.16796,2.97461 0.592,0.78 1.00743,2.196047 1.2461,4.248047 0.23733,2.054666 0.35742,4.213182 0.35742,6.478515 v 2.658203 65.115234 c 0,3.612 -0.26807,6.85075 -0.80273,9.71875 -0.512,2.744 -1.3503,4.58688 -2.51563,5.54688 z" style="display:inline;fill:#eb3c3e;fill-opacity:1;fill-rule:nonzero;stroke:none;stroke-width:1.33333325" transform="scale(0.26458333)"/>
  </svg:g>
  </svg>