<!-- Created with Inkscape (http://www.inkscape.org/) --><svg xmlns:dc="http://purl.org/dc/elements/1.1/" xmlns:cc="http://creativecommons.org/ns#" xmlns:rdf="http://www.w3.org/1999/02/22-rdf-syntax-ns#" xmlns:svg="http://www.w3.org/2000/svg" xmlns="http://www.w3.org/2000/svg" xmlns:sodipodi="http://sodipodi.sourceforge.net/DTD/sodipodi-0.dtd" xmlns:inkscape="http://www.inkscape.org/namespaces/inkscape" width="193.61609mm" height="70.153458mm" viewBox="0 0 193.61609 70.153458" version="1.1" id="svg8" inkscape:version="0.92.4 (5da689c313, 2019-01-14)" sodipodi:docname="stranger-things-logo-separated.tar">
  <defs id="defs2">
    <clipPath clipPathUnits="userSpaceOnUse" id="clipPath18">
      <path d="M 0,595.28 H 841.89 V 0 H 0 Z" id="path16" inkscape:connector-curvature="0"/>
    </clipPath>
  </defs>
  <sodipodi:namedview id="base" pagecolor="#ffffff" bordercolor="#666666" borderopacity="1.0" inkscape:pageopacity="0.0" inkscape:pageshadow="2" inkscape:zoom="0.98994949" inkscape:cx="334.28575" inkscape:cy="185.43587" inkscape:document-units="mm" inkscape:current-layer="layer25" showgrid="false" fit-margin-top="0" fit-margin-left="0" fit-margin-right="0" fit-margin-bottom="0" inkscape:window-width="1920" inkscape:window-height="1017" inkscape:window-x="-8" inkscape:window-y="-8" inkscape:window-maximized="1"/>
  <metadata id="metadata5">
    <rdf:RDF>
      <cc:Work rdf:about="">
        <dc:format>image/svg+xml</dc:format>
        <dc:type rdf:resource="http://purl.org/dc/dcmitype/StillImage"/>
        <dc:title/>
      </cc:Work>
    </rdf:RDF>
  </metadata>
  <svg:g inkscape:groupmode="layer" id="layer20" inkscape:label="N2">
    <svg:path inkscape:connector-curvature="0" id="path933" style="display:inline;fill:#eb3c3e;fill-opacity:1;fill-rule:nonzero;stroke:none" d="m 0,0 c -0.426,0.83 -0.705,1.803 -0.838,2.918 -0.135,1.115 -0.201,2.09 -0.201,2.92 v 51.844 c 0,1.451 0.1,3.048 0.301,4.787 0.201,1.738 0.705,3.203 1.509,4.396 0.672,0.987 1.411,1.61 2.215,1.869 l 1.612,0.311 v 3.037 h -20.27 v -3.039 c 1.086,-0.156 2.004,-0.43 2.75,-0.818 0.746,-0.391 1.391,-1.014 1.936,-1.871 0.543,-0.856 0.881,-1.649 1.017,-2.375 0.135,-0.729 0.203,-1.793 0.203,-3.196 v -0.935 -17.61 l -13.49,19.637 c -0.447,0.674 -0.762,1.219 -0.939,1.635 -0.405,0.883 -0.606,1.687 -0.606,2.416 0,0.519 0.156,1.025 0.471,1.519 0.312,0.493 0.637,0.883 0.973,1.168 0.336,0.285 0.726,0.43 1.175,0.43 v 3.039 h -38.392 v -3.039 c 1.655,-0.262 2.953,-0.986 3.893,-2.18 0.447,-0.57 0.76,-1.609 0.94,-3.113 0.178,-1.506 0.268,-3.088 0.268,-4.748 V 57.055 9.34 c 0,-2.647 -0.201,-5.02 -0.604,-7.121 -0.402,-2.102 -1.073,-3.49 -2.014,-4.164 -0.537,-0.364 -0.963,-0.584 -1.275,-0.662 -0.314,-0.079 -0.896,-0.17 -1.745,-0.274 v -3.035 h 19.531 v 3.035 c -1.06,0.207 -1.921,0.533 -2.584,0.973 -0.662,0.441 -1.182,1.076 -1.557,1.906 -0.375,0.832 -0.64,1.699 -0.795,2.607 -0.155,0.909 -0.231,2.01 -0.231,3.309 l 0.066,52.143 30.818,-42.026 c 1.785,-2.439 2.992,-4.359 3.617,-5.76 0.937,-2.023 1.406,-4.175 1.406,-6.458 0,-3.426 -1.096,-5.553 -3.289,-6.381 -0.582,-0.209 -1.164,-0.313 -1.744,-0.313 V -5.916 H 4.396 v 3.037 c -0.939,0.102 -1.8,0.4 -2.584,0.893 C 1.029,-1.492 0.426,-0.83 0,0" transform="matrix(0.35277777,0,0,-0.35277777,113.42952,67.296734)"/>
  </svg:g>
  </svg>