<!-- Created with Inkscape (http://www.inkscape.org/) --><svg xmlns:dc="http://purl.org/dc/elements/1.1/" xmlns:cc="http://creativecommons.org/ns#" xmlns:rdf="http://www.w3.org/1999/02/22-rdf-syntax-ns#" xmlns:svg="http://www.w3.org/2000/svg" xmlns="http://www.w3.org/2000/svg" xmlns:sodipodi="http://sodipodi.sourceforge.net/DTD/sodipodi-0.dtd" xmlns:inkscape="http://www.inkscape.org/namespaces/inkscape" width="193.61609mm" height="70.153458mm" viewBox="0 0 193.61609 70.153458" version="1.1" id="svg8" inkscape:version="0.92.4 (5da689c313, 2019-01-14)" sodipodi:docname="stranger-things-logo-separated.tar">
  <defs id="defs2">
    <clipPath clipPathUnits="userSpaceOnUse" id="clipPath18">
      <path d="M 0,595.28 H 841.89 V 0 H 0 Z" id="path16" inkscape:connector-curvature="0"/>
    </clipPath>
  </defs>
  <sodipodi:namedview id="base" pagecolor="#ffffff" bordercolor="#666666" borderopacity="1.0" inkscape:pageopacity="0.0" inkscape:pageshadow="2" inkscape:zoom="0.98994949" inkscape:cx="334.28575" inkscape:cy="185.43587" inkscape:document-units="mm" inkscape:current-layer="layer25" showgrid="false" fit-margin-top="0" fit-margin-left="0" fit-margin-right="0" fit-margin-bottom="0" inkscape:window-width="1920" inkscape:window-height="1017" inkscape:window-x="-8" inkscape:window-y="-8" inkscape:window-maximized="1"/>
  <metadata id="metadata5">
    <rdf:RDF>
      <cc:Work rdf:about="">
        <dc:format>image/svg+xml</dc:format>
        <dc:type rdf:resource="http://purl.org/dc/dcmitype/StillImage"/>
        <dc:title/>
      </cc:Work>
    </rdf:RDF>
  </metadata>
  <svg:g inkscape:groupmode="layer" id="layer11" inkscape:label="R1" style="display:inline">
    <svg:path inkscape:connector-curvature="0" id="path903" d="m 169.56641,25.060547 v 4.146484 c 1.248,0 2.31831,0.265495 3.20898,0.798828 0.89067,0.532 1.67733,1.505256 2.36133,2.919922 0.68267,1.417334 1.14219,4.001193 1.38086,7.75586 0.0587,1.201333 0.0879,2.899703 0.0879,5.095703 l -0.17578,69.574216 c 0,2.40667 -0.17978,4.35318 -0.53711,5.83985 -0.356,1.48933 -1.12779,2.79964 -2.31446,3.93164 -0.89063,0.84933 -1.64943,1.43462 -2.27343,1.75195 -0.624,0.32 -1.43989,0.47852 -2.44922,0.47852 v 4.14843 h 42.5 v -4.14843 c -1.664,-0.42534 -2.70252,-0.74504 -3.11719,-0.95704 -0.892,-0.49466 -1.813,-1.45304 -2.76367,-2.87304 -0.712,-1.06134 -1.2027,-2.32011 -1.4707,-3.77344 -0.26667,-1.452 -0.40039,-3.31136 -0.40039,-5.58203 V 84.181641 l 4.72265,-2.658203 c 1.78267,2.906663 3.57863,5.847505 5.39063,8.826171 1.812,2.976 3.312,5.706167 4.5,8.1875 4.03866,8.649331 6.50386,14.142421 7.39453,16.482421 1.30666,3.47333 1.96094,6.16675 1.96094,8.08008 0,1.42 -0.35832,2.37509 -1.07032,2.87109 -1.30666,0.92267 -2.76256,1.48979 -4.36523,1.70313 v 3.82812 h 28.67187 8.21094 v -11.13867 c -0.644,-1.53867 -1.32359,-3.32755 -2.04492,-5.43555 -3.208,-9.48666 -5.49466,-15.614282 -6.86133,-18.376949 -2.55467,-5.097333 -5.00561,-9.683859 -7.34961,-13.755859 -2.348,-4.070667 -5.09419,-8.481229 -8.24219,-13.226563 0.47467,0 2.19597,-1.026744 5.16797,-3.080078 3.92,-2.761333 7.09721,-5.770013 9.53321,-9.027343 3.38533,-4.604 5.07812,-9.524912 5.07812,-14.767579 0,-0.564 -0.0584,-1.485718 -0.17578,-2.761718 -0.53467,-4.813334 -2.62987,-8.498875 -6.2832,-11.046875 -3.652,-2.548 -8.95497,-3.824219 -15.9043,-3.824219 z M 213.40625,36.4375 c 3.38533,0 6.17571,0.922958 8.37305,2.765625 2.55333,2.126667 3.83203,5.03475 3.83203,8.71875 0,5.316 -2.22698,10.280052 -6.68164,14.886719 -3.44534,3.546666 -7.42612,6.239364 -11.93946,8.082031 l -3.11718,1.169922 V 45.371094 c 0,-1.770667 0.22263,-3.31362 0.66797,-4.626953 0.44533,-1.310667 1.23004,-2.249026 2.35937,-2.81836 2.02,-0.992 4.18853,-1.488281 6.50586,-1.488281 z" style="display:inline;fill:#eb3c3e;fill-opacity:1;fill-rule:nonzero;stroke:none;stroke-width:1.33333325" transform="scale(0.26458333)"/>
  </svg:g>
  </svg>