<!-- Created with Inkscape (http://www.inkscape.org/) --><svg xmlns:dc="http://purl.org/dc/elements/1.1/" xmlns:cc="http://creativecommons.org/ns#" xmlns:rdf="http://www.w3.org/1999/02/22-rdf-syntax-ns#" xmlns:svg="http://www.w3.org/2000/svg" xmlns="http://www.w3.org/2000/svg" xmlns:sodipodi="http://sodipodi.sourceforge.net/DTD/sodipodi-0.dtd" xmlns:inkscape="http://www.inkscape.org/namespaces/inkscape" width="193.61609mm" height="70.153458mm" viewBox="0 0 193.61609 70.153458" version="1.1" id="svg8" inkscape:version="0.92.4 (5da689c313, 2019-01-14)" sodipodi:docname="stranger-things-logo-separated.tar">
  <defs id="defs2">
    <clipPath clipPathUnits="userSpaceOnUse" id="clipPath18">
      <path d="M 0,595.28 H 841.89 V 0 H 0 Z" id="path16" inkscape:connector-curvature="0"/>
    </clipPath>
  </defs>
  <sodipodi:namedview id="base" pagecolor="#ffffff" bordercolor="#666666" borderopacity="1.0" inkscape:pageopacity="0.0" inkscape:pageshadow="2" inkscape:zoom="0.98994949" inkscape:cx="334.28575" inkscape:cy="185.43587" inkscape:document-units="mm" inkscape:current-layer="layer25" showgrid="false" fit-margin-top="0" fit-margin-left="0" fit-margin-right="0" fit-margin-bottom="0" inkscape:window-width="1920" inkscape:window-height="1017" inkscape:window-x="-8" inkscape:window-y="-8" inkscape:window-maximized="1"/>
  <metadata id="metadata5">
    <rdf:RDF>
      <cc:Work rdf:about="">
        <dc:format>image/svg+xml</dc:format>
        <dc:type rdf:resource="http://purl.org/dc/dcmitype/StillImage"/>
        <dc:title/>
      </cc:Work>
    </rdf:RDF>
  </metadata>
  <svg:g inkscape:groupmode="layer" id="layer16" inkscape:label="R2" style="display:inline">
    <svg:path d="m 0,0 c -3.303,-3.408 -7.119,-5.998 -11.447,-7.77 l -2.989,-1.125 v 25.663 c 0,1.703 0.213,3.185 0.641,4.447 0.426,1.261 1.18,2.164 2.264,2.71 1.935,0.954 4.013,1.43 6.234,1.43 3.246,0 5.924,-0.886 8.031,-2.658 2.448,-2.045 3.672,-4.84 3.672,-8.383 C 6.406,9.202 4.271,4.431 0,0 m 22.852,-19.217 c -2.252,3.915 -4.885,8.154 -7.903,12.717 0.455,0 2.106,0.988 4.955,2.963 3.758,2.654 6.805,5.547 9.141,8.68 3.246,4.425 4.869,9.158 4.869,14.199 0,0.543 -0.059,1.428 -0.172,2.654 -0.512,4.63 -2.519,8.172 -6.021,10.622 -3.504,2.45 -8.586,3.677 -15.248,3.677 h -59.797 v -3.986 c 1.195,0 2.22,-0.256 3.074,-0.768 0.855,-0.511 1.609,-1.447 2.264,-2.809 0.654,-1.36 1.097,-3.845 1.324,-7.455 0.057,-1.156 0.086,-2.791 0.086,-4.9 l -0.17,-66.897 c 0,-2.314 -0.172,-4.185 -0.514,-5.615 -0.342,-1.431 -1.082,-2.691 -2.22,-3.779 -0.854,-0.818 -1.581,-1.379 -2.178,-1.686 -0.598,-0.308 -1.381,-0.459 -2.35,-0.459 v -3.988 h 40.746 v 3.988 c -1.593,0.409 -2.592,0.715 -2.988,0.92 -0.855,0.477 -1.738,1.397 -2.648,2.76 -0.684,1.024 -1.155,2.233 -1.411,3.631 -0.255,1.396 -0.384,3.185 -0.384,5.367 v 28.832 l 4.527,2.555 c 1.709,-2.795 3.432,-5.623 5.168,-8.485 1.738,-2.863 3.176,-5.488 4.314,-7.873 3.873,-8.316 6.237,-13.597 7.09,-15.847 1.252,-3.34 1.881,-5.93 1.881,-7.77 0,-1.365 -0.342,-2.285 -1.025,-2.761 -1.254,-0.887 -2.649,-1.432 -4.186,-1.635 v -3.682 h 43.053 v 3.473 c -1.596,0.342 -2.934,0.783 -4.016,1.328 -1.48,0.748 -3.359,4.459 -5.636,11.133 -3.077,9.124 -5.27,15.013 -6.579,17.67 -2.449,4.902 -4.798,9.31 -7.046,13.226" style="display:inline;fill:#eb3c3e;fill-opacity:1;fill-rule:nonzero;stroke:none" id="path918" inkscape:connector-curvature="0" transform="matrix(0.35277777,0,0,-0.35277777,177.2885,19.073671)"/>
  </svg:g>
  </svg>