<!-- Created with Inkscape (http://www.inkscape.org/) --><svg xmlns:dc="http://purl.org/dc/elements/1.1/" xmlns:cc="http://creativecommons.org/ns#" xmlns:rdf="http://www.w3.org/1999/02/22-rdf-syntax-ns#" xmlns:svg="http://www.w3.org/2000/svg" xmlns="http://www.w3.org/2000/svg" xmlns:sodipodi="http://sodipodi.sourceforge.net/DTD/sodipodi-0.dtd" xmlns:inkscape="http://www.inkscape.org/namespaces/inkscape" width="193.61609mm" height="70.153458mm" viewBox="0 0 193.61609 70.153458" version="1.1" id="svg8" inkscape:version="0.92.4 (5da689c313, 2019-01-14)" sodipodi:docname="stranger-things-logo-separated.tar">
  <defs id="defs2">
    <clipPath clipPathUnits="userSpaceOnUse" id="clipPath18">
      <path d="M 0,595.28 H 841.89 V 0 H 0 Z" id="path16" inkscape:connector-curvature="0"/>
    </clipPath>
  </defs>
  <sodipodi:namedview id="base" pagecolor="#ffffff" bordercolor="#666666" borderopacity="1.0" inkscape:pageopacity="0.0" inkscape:pageshadow="2" inkscape:zoom="0.98994949" inkscape:cx="334.28575" inkscape:cy="185.43587" inkscape:document-units="mm" inkscape:current-layer="layer25" showgrid="false" fit-margin-top="0" fit-margin-left="0" fit-margin-right="0" fit-margin-bottom="0" inkscape:window-width="1920" inkscape:window-height="1017" inkscape:window-x="-8" inkscape:window-y="-8" inkscape:window-maximized="1"/>
  <metadata id="metadata5">
    <rdf:RDF>
      <cc:Work rdf:about="">
        <dc:format>image/svg+xml</dc:format>
        <dc:type rdf:resource="http://purl.org/dc/dcmitype/StillImage"/>
        <dc:title/>
      </cc:Work>
    </rdf:RDF>
  </metadata>
  <svg:g inkscape:groupmode="layer" id="layer9" inkscape:label="S1" style="display:inline">
    <svg:path d="m 0,0 c 0.446,0.1 1.013,0.148 1.697,0.148 4.998,-0.798 9.892,-1.599 14.68,-2.398 4.787,-0.801 9.102,-1.201 12.943,-1.201 4.787,0 14.158,1.068 19.419,3.201 6.419,2.6 10.981,6.264 14.875,10.998 4.736,5.801 7.25,12.766 7.25,20.898 0,6.18 -1.385,12.3 -4.803,17.508 -1.457,2.219 -3.375,4.061 -5.54,5.575 -3.951,2.759 -8.478,4.497 -12.997,6.082 -5.172,1.815 -10.304,3.718 -15.442,5.633 -3.611,1.347 -7.325,2.056 -10.142,4.944 -4.122,4.227 -3.001,11.124 0.783,15.183 1.756,1.885 4.829,3.351 7.295,3.934 8.962,2.118 15.346,-2.053 23.596,-10.053 1.944,-1.886 4,-6.125 4,-6.125 l 4.583,25.75 c -0.526,-0.335 -2.718,-1.766 -3.666,-2.5 -1.765,-1.366 -4.727,0.403 -6.482,1.038 -2.367,0.856 -4.777,1.592 -7.225,2.18 -4.922,1.18 -9.971,1.746 -15.031,1.746 -3.969,0 -8.296,-0.291 -12.16,-1.19 C 14.795,100.689 11.771,99.258 9.258,97.809 1.113,93.113 -2.783,84.773 -4.537,75.877 -5.61,70.432 -5.305,64.803 -3.071,59.678 0.104,52.392 5.743,46.202 13.141,43.146 c 0,0 25.222,-8.402 25.223,-8.402 1.821,-0.607 3.933,-2.39 5.043,-3.926 C 47.41,25.285 45.472,16.081 40.543,11.766 32.812,4.996 18.9,7.494 11.272,13.23 7.09,16.377 4.88,21.113 3.094,25.889 2.989,26.166 1.093,31.41 1.197,31.41 h -3.75 L -5.136,-3.451 c 0.578,0.535 2.952,2.051 3.558,2.551 0.604,0.5 1.131,0.798 1.578,0.9" style="display:inline;fill:#eb3c3e;fill-opacity:1;fill-rule:nonzero;stroke:none" id="path897" inkscape:connector-curvature="0" transform="matrix(0.35277777,0,0,-0.35277777,1.8119019,41.220813)"/>
  </svg:g>
  </svg>