<!-- Created with Inkscape (http://www.inkscape.org/) --><svg xmlns:dc="http://purl.org/dc/elements/1.1/" xmlns:cc="http://creativecommons.org/ns#" xmlns:rdf="http://www.w3.org/1999/02/22-rdf-syntax-ns#" xmlns:svg="http://www.w3.org/2000/svg" xmlns="http://www.w3.org/2000/svg" xmlns:sodipodi="http://sodipodi.sourceforge.net/DTD/sodipodi-0.dtd" xmlns:inkscape="http://www.inkscape.org/namespaces/inkscape" width="193.61609mm" height="70.153458mm" viewBox="0 0 193.61609 70.153458" version="1.1" id="svg8" inkscape:version="0.92.4 (5da689c313, 2019-01-14)" sodipodi:docname="stranger-things-logo-separated.tar">
  <defs id="defs2">
    <clipPath clipPathUnits="userSpaceOnUse" id="clipPath18">
      <path d="M 0,595.28 H 841.89 V 0 H 0 Z" id="path16" inkscape:connector-curvature="0"/>
    </clipPath>
  </defs>
  <sodipodi:namedview id="base" pagecolor="#ffffff" bordercolor="#666666" borderopacity="1.0" inkscape:pageopacity="0.0" inkscape:pageshadow="2" inkscape:zoom="0.98994949" inkscape:cx="334.28575" inkscape:cy="185.43587" inkscape:document-units="mm" inkscape:current-layer="layer25" showgrid="false" fit-margin-top="0" fit-margin-left="0" fit-margin-right="0" fit-margin-bottom="0" inkscape:window-width="1920" inkscape:window-height="1017" inkscape:window-x="-8" inkscape:window-y="-8" inkscape:window-maximized="1"/>
  <metadata id="metadata5">
    <rdf:RDF>
      <cc:Work rdf:about="">
        <dc:format>image/svg+xml</dc:format>
        <dc:type rdf:resource="http://purl.org/dc/dcmitype/StillImage"/>
        <dc:title/>
      </cc:Work>
    </rdf:RDF>
  </metadata>
  <svg:g inkscape:groupmode="layer" id="layer22" inkscape:label="S2">
    <svg:path inkscape:connector-curvature="0" id="path939" style="display:inline;fill:#eb3c3e;fill-opacity:1;fill-rule:nonzero;stroke:none" d="m 0,0 -16.107,6 c -2.819,1.037 -4.901,2.389 -6.243,4.051 -1.074,1.349 -1.611,2.883 -1.611,4.597 0,1.143 0.156,2.233 0.471,3.272 0.178,0.625 0.469,1.351 0.873,2.182 0.625,1.351 1.586,2.351 2.885,3 1.296,0.65 2.82,0.974 4.564,0.974 2.014,0 4.117,-0.416 6.309,-1.246 2.193,-0.832 4.138,-1.924 5.839,-3.273 2.104,-1.662 4.049,-4.442 5.84,-8.338 C 3.58,9.609 4.027,8.414 4.162,7.635 L 6.578,8.492 4.297,33.816 C 3.85,33.555 3.223,33.141 2.418,32.57 1.344,31.945 0.314,31.479 -0.67,31.166 -0.805,31.115 -1.051,31.09 -1.408,31.09 c -3.043,0.674 -5.996,1.349 -8.86,2.025 -2.865,0.674 -5.461,1.012 -7.787,1.012 -1.789,0 -3.49,-0.182 -5.099,-0.545 -6.623,-1.559 -11.971,-4.441 -16.043,-8.648 -4.563,-4.729 -6.846,-10.495 -6.846,-17.299 0,-4.936 1.297,-9.143 3.893,-12.623 2.371,-3.168 5.683,-5.559 9.933,-7.168 l 17.721,-6.78 c 1.609,-0.623 2.896,-1.648 3.859,-3.078 0.961,-1.427 1.444,-3.103 1.444,-5.025 0,-0.832 -0.047,-1.481 -0.135,-1.947 -0.537,-3.118 -2.014,-5.534 -4.43,-7.246 -2.416,-1.715 -5.326,-2.573 -8.726,-2.573 -3.088,0 -6.254,0.78 -9.496,2.338 -3.247,1.559 -6.053,3.791 -8.424,6.701 -1.657,2.026 -3.112,4.78 -4.364,8.26 -0.984,2.699 -1.543,4.83 -1.677,6.389 l -2.416,-0.311 2.617,-32.26 c 0.492,0.417 0.996,0.819 1.51,1.209 0.513,0.389 0.963,0.624 1.343,0.702 0.379,0.076 0.86,0.115 1.442,0.115 4.252,-0.623 8.412,-1.246 12.484,-1.869 4.072,-0.623 7.742,-0.936 11.008,-0.936 4.072,0 8.346,0.832 12.82,2.494 5.459,2.026 9.844,4.881 13.155,8.571 4.027,4.519 6.041,9.947 6.041,16.285 0,5.299 -1.198,9.74 -3.59,13.324 C 7.574,-4.209 4.252,-1.611 0,0" transform="matrix(0.35277777,0,0,-0.35277777,156.99207,53.055377)"/>
  </svg:g>
</svg>