<!-- Created with Inkscape (http://www.inkscape.org/) --><svg xmlns:dc="http://purl.org/dc/elements/1.1/" xmlns:cc="http://creativecommons.org/ns#" xmlns:rdf="http://www.w3.org/1999/02/22-rdf-syntax-ns#" xmlns:svg="http://www.w3.org/2000/svg" xmlns="http://www.w3.org/2000/svg" xmlns:sodipodi="http://sodipodi.sourceforge.net/DTD/sodipodi-0.dtd" xmlns:inkscape="http://www.inkscape.org/namespaces/inkscape" width="193.61609mm" height="70.153458mm" viewBox="0 0 193.61609 70.153458" version="1.1" id="svg8" inkscape:version="0.92.4 (5da689c313, 2019-01-14)" sodipodi:docname="stranger-things-logo-separated.tar">
  <defs id="defs2">
    <clipPath clipPathUnits="userSpaceOnUse" id="clipPath18">
      <path d="M 0,595.28 H 841.89 V 0 H 0 Z" id="path16" inkscape:connector-curvature="0"/>
    </clipPath>
  </defs>
  <sodipodi:namedview id="base" pagecolor="#ffffff" bordercolor="#666666" borderopacity="1.0" inkscape:pageopacity="0.0" inkscape:pageshadow="2" inkscape:zoom="0.98994949" inkscape:cx="334.28575" inkscape:cy="185.43587" inkscape:document-units="mm" inkscape:current-layer="layer25" showgrid="false" fit-margin-top="0" fit-margin-left="0" fit-margin-right="0" fit-margin-bottom="0" inkscape:window-width="1920" inkscape:window-height="1017" inkscape:window-x="-8" inkscape:window-y="-8" inkscape:window-maximized="1"/>
  <metadata id="metadata5">
    <rdf:RDF>
      <cc:Work rdf:about="">
        <dc:format>image/svg+xml</dc:format>
        <dc:type rdf:resource="http://purl.org/dc/dcmitype/StillImage"/>
        <dc:title/>
      </cc:Work>
    </rdf:RDF>
  </metadata>
  <svg:g inkscape:groupmode="layer" id="layer10" inkscape:label="T1" style="display:inline">
    <svg:path inkscape:connector-curvature="0" id="path900" style="display:inline;fill:#eb3c3e;fill-opacity:1;fill-rule:nonzero;stroke:none" d="M 0,0 C 1.871,-2.659 3.185,-5.582 3.942,-8.772 L 5.947,-8.049 1.47,19.619 C 0.578,18.957 -0.346,18.461 -1.304,18.131 -2.262,17.799 -3.008,17.62 -3.542,17.59 -4.077,17.561 -4.678,17.545 -5.347,17.545 h -40.094 -1.939 c -0.09,0 -0.457,0.026 -1.102,0.08 -0.647,0.053 -1.148,0.16 -1.503,0.318 -0.892,0.479 -1.627,1.037 -2.205,1.676 l -4.812,-27.672 2.004,-0.48 c 0.401,1.806 1.27,3.988 2.606,6.539 1.114,2.127 2.228,3.749 3.342,4.865 2.227,2.126 4.299,3.629 6.215,4.506 1.914,0.877 4.21,1.316 6.883,1.316 v -56.888 c 0,-2.281 -0.09,-3.977 -0.268,-5.092 -0.178,-1.113 -0.735,-2.201 -1.671,-3.262 -1.559,-1.751 -3.207,-2.625 -4.944,-2.625 -0.401,0 -0.714,-0.027 -0.936,-0.08 v -3.031 H -7.15 v 3.111 c -1.427,0 -2.607,0.197 -3.542,0.596 -0.936,0.399 -1.794,1.182 -2.574,2.35 -0.779,1.169 -1.292,2.497 -1.536,3.984 -0.246,1.486 -0.368,3.159 -0.368,5.018 v 1.593 l -0.066,54.326 c 3.207,0 6.024,-0.705 8.453,-2.113 C -4.355,5.17 -2.095,2.977 0,0" transform="matrix(0.35277777,0,0,-0.35277777,43.242264,12.820121)"/>
  </svg:g>
  </svg>