<!-- Created with Inkscape (http://www.inkscape.org/) --><svg xmlns:dc="http://purl.org/dc/elements/1.1/" xmlns:cc="http://creativecommons.org/ns#" xmlns:rdf="http://www.w3.org/1999/02/22-rdf-syntax-ns#" xmlns:svg="http://www.w3.org/2000/svg" xmlns="http://www.w3.org/2000/svg" xmlns:sodipodi="http://sodipodi.sourceforge.net/DTD/sodipodi-0.dtd" xmlns:inkscape="http://www.inkscape.org/namespaces/inkscape" width="193.61609mm" height="70.153458mm" viewBox="0 0 193.61609 70.153458" version="1.1" id="svg8" inkscape:version="0.92.4 (5da689c313, 2019-01-14)" sodipodi:docname="stranger-things-logo-separated.tar">
  <defs id="defs2">
    <clipPath clipPathUnits="userSpaceOnUse" id="clipPath18">
      <path d="M 0,595.28 H 841.89 V 0 H 0 Z" id="path16" inkscape:connector-curvature="0"/>
    </clipPath>
  </defs>
  <sodipodi:namedview id="base" pagecolor="#ffffff" bordercolor="#666666" borderopacity="1.0" inkscape:pageopacity="0.0" inkscape:pageshadow="2" inkscape:zoom="0.98994949" inkscape:cx="334.28575" inkscape:cy="185.43587" inkscape:document-units="mm" inkscape:current-layer="layer25" showgrid="false" fit-margin-top="0" fit-margin-left="0" fit-margin-right="0" fit-margin-bottom="0" inkscape:window-width="1920" inkscape:window-height="1017" inkscape:window-x="-8" inkscape:window-y="-8" inkscape:window-maximized="1"/>
  <metadata id="metadata5">
    <rdf:RDF>
      <cc:Work rdf:about="">
        <dc:format>image/svg+xml</dc:format>
        <dc:type rdf:resource="http://purl.org/dc/dcmitype/StillImage"/>
        <dc:title/>
      </cc:Work>
    </rdf:RDF>
  </metadata>
  <svg:g inkscape:groupmode="layer" id="layer17" inkscape:label="T2" style="display:inline">
    <svg:path inkscape:connector-curvature="0" id="path921" style="display:inline;fill:#eb3c3e;fill-opacity:1;fill-rule:nonzero;stroke:none" d="M 0,0 C -0.892,-0.668 -1.815,-1.168 -2.772,-1.5 -3.731,-1.834 -4.477,-2.016 -5.012,-2.045 -5.546,-2.076 -6.147,-2.09 -6.815,-2.09 h -40.096 -1.938 c -0.089,0 -0.457,0.026 -1.102,0.08 -0.647,0.053 -1.148,0.16 -1.504,0.323 -0.892,0.48 -1.627,1.044 -2.205,1.687 l -4.812,-27.895 2.005,-0.484 c 0.402,1.822 1.27,4.02 2.607,6.592 1.112,2.144 2.226,3.779 3.34,4.904 2.228,2.143 4.299,3.658 6.215,4.543 1.915,0.883 4.21,1.326 6.883,1.326 v -57.345 c 0,-2.299 -0.09,-4.01 -0.266,-5.133 -0.179,-1.123 -0.736,-2.221 -1.671,-3.289 -1.561,-1.764 -3.208,-2.647 -4.946,-2.647 -0.401,0 -0.713,-0.027 -0.935,-0.08 v -3.055 h 36.62 v 3.135 c -1.426,0 -2.607,0.199 -3.542,0.602 -0.936,0.402 -1.793,1.191 -2.572,2.369 -0.781,1.178 -1.293,2.516 -1.537,4.016 -0.246,1.498 -0.368,3.185 -0.368,5.058 v 1.606 l -0.067,54.763 c 3.208,0 6.025,-0.711 8.453,-2.131 2.428,-1.419 4.689,-3.63 6.783,-6.632 1.871,-2.68 3.185,-5.627 3.943,-8.842 l 2.005,0.728 z" transform="matrix(0.35277777,0,0,-0.35277777,51.051248,39.914407)"/>
    <svg:path transform="matrix(0.35277777,0,0,-0.35277777,51.051248,39.914407)" d="M 0,0 C -0.892,-0.668 -1.815,-1.168 -2.772,-1.5 -3.731,-1.834 -4.477,-2.016 -5.012,-2.045 -5.546,-2.076 -6.147,-2.09 -6.815,-2.09 h -40.096 -1.938 c -0.089,0 -0.457,0.026 -1.102,0.08 -0.647,0.053 -1.148,0.16 -1.504,0.323 -0.892,0.48 -1.627,1.044 -2.205,1.687 l -4.812,-27.895 2.005,-0.484 c 0.402,1.822 1.27,4.02 2.607,6.592 1.112,2.144 2.226,3.779 3.34,4.904 2.228,2.143 4.299,3.658 6.215,4.543 1.915,0.883 4.21,1.326 6.883,1.326 v -57.345 c 0,-2.299 -0.09,-4.01 -0.266,-5.133 -0.179,-1.123 -0.736,-2.221 -1.671,-3.289 -1.561,-1.764 -3.208,-2.647 -4.946,-2.647 -0.401,0 -0.713,-0.027 -0.935,-0.08 v -3.055 h 36.62 v 3.135 c -1.426,0 -2.607,0.199 -3.542,0.602 -0.936,0.402 -1.793,1.191 -2.572,2.369 -0.781,1.178 -1.293,2.516 -1.537,4.016 -0.246,1.498 -0.368,3.185 -0.368,5.058 v 1.606 l -0.067,54.763 c 3.208,0 6.025,-0.711 8.453,-2.131 2.428,-1.419 4.689,-3.63 6.783,-6.632 1.871,-2.68 3.185,-5.627 3.943,-8.842 l 2.005,0.728 z" style="display:inline;fill:#eb3c3e;fill-opacity:1;fill-rule:nonzero;stroke:none" id="path924" inkscape:connector-curvature="0"/>
  </svg:g>
  </svg>