<?xml version="1.0" encoding="UTF-8" standalone="no"?>
<svg
   xmlns:dc="http://purl.org/dc/elements/1.1/"
   xmlns:cc="http://creativecommons.org/ns#"
   xmlns:rdf="http://www.w3.org/1999/02/22-rdf-syntax-ns#"
   xmlns:svg="http://www.w3.org/2000/svg"
   xmlns="http://www.w3.org/2000/svg"
   id="svg8"
   version="1.1"
   viewBox="0 0 193.61609 70.153458"
   height="70.153458mm"
   width="193.61609mm">
  <defs
     id="defs2">
    <clipPath
       id="clipPath18"
       clipPathUnits="userSpaceOnUse">
      <path
         id="path16"
         d="M 0,595.28 H 841.89 V 0 H 0 Z" />
    </clipPath>
  </defs>
  <metadata
     id="metadata5">
    <rdf:RDF>
      <cc:Work
         rdf:about="">
        <dc:format>image/svg+xml</dc:format>
        <dc:type
           rdf:resource="http://purl.org/dc/dcmitype/StillImage" />
        <dc:title></dc:title>
      </cc:Work>
    </rdf:RDF>
  </metadata>
  <g
     style="display:none"
     transform="translate(-10.159226,-99.393511)"
     id="layer1">
    <a
       id="a156">
      <g
         id="g10"
         transform="matrix(0.35277777,0,0,-0.35277777,-41.532595,239.47098)">
        <g
           id="g12">
          <g
             id="g14"
             clip-path="url(#clipPath18)">
            <g
               id="g20"
               transform="translate(269.1045,360.7295)">
              <path
                 d="M 0,0 C 1.871,-2.659 3.185,-5.582 3.942,-8.772 L 5.947,-8.049 1.47,19.619 C 0.578,18.957 -0.346,18.461 -1.304,18.131 -2.262,17.799 -3.008,17.62 -3.542,17.59 -4.077,17.561 -4.678,17.545 -5.347,17.545 h -40.094 -1.939 c -0.09,0 -0.457,0.026 -1.102,0.08 -0.647,0.053 -1.148,0.16 -1.503,0.318 -0.892,0.479 -1.627,1.037 -2.205,1.676 l -4.812,-27.672 2.004,-0.48 c 0.401,1.806 1.27,3.988 2.606,6.539 1.114,2.127 2.228,3.749 3.342,4.865 2.227,2.126 4.299,3.629 6.215,4.506 1.914,0.877 4.21,1.316 6.883,1.316 v -56.888 c 0,-2.281 -0.09,-3.977 -0.268,-5.092 -0.178,-1.113 -0.735,-2.201 -1.671,-3.262 -1.559,-1.751 -3.207,-2.625 -4.944,-2.625 -0.401,0 -0.714,-0.027 -0.936,-0.08 v -3.031 H -7.15 v 3.111 c -1.427,0 -2.607,0.197 -3.542,0.596 -0.936,0.399 -1.794,1.182 -2.574,2.35 -0.779,1.169 -1.292,2.497 -1.536,3.984 -0.246,1.486 -0.368,3.159 -0.368,5.018 v 1.593 l -0.066,54.326 c 3.207,0 6.024,-0.705 8.453,-2.113 C -4.355,5.17 -2.095,2.977 0,0"
                 style="fill:#eb3c3e;fill-opacity:1;fill-rule:nonzero;stroke:none"
                 id="path22" />
            </g>
            <g
               id="g24"
               transform="translate(371.9971,335.9922)">
              <path
                 d="m 0,0 c -1.823,1.116 -3.512,1.94 -5.067,2.472 -1.556,0.531 -2.734,0.824 -3.534,0.878 -0.799,0.051 -1.466,0.079 -2,0.079 L -4.215,25.845 3.267,-2.393 C 2.422,-1.648 1.333,-0.851 0,0 m -61.272,13.972 c -2.584,-2.66 -5.57,-4.68 -8.955,-6.062 L -72.565,7.033 V 27.05 c 0,1.328 0.167,2.485 0.501,3.47 0.334,0.983 0.923,1.686 1.77,2.113 1.515,0.744 3.141,1.116 4.879,1.116 2.539,0 4.633,-0.691 6.281,-2.073 1.915,-1.595 2.873,-3.777 2.873,-6.54 0,-3.987 -1.67,-7.709 -5.011,-11.164 m 113.823,-51.52 v 3.108 c -1.056,0.211 -1.913,0.544 -2.572,0.995 -0.661,0.451 -1.177,1.101 -1.551,1.952 -0.374,0.849 -0.638,1.738 -0.791,2.667 -0.156,0.93 -0.232,2.057 -0.232,3.386 l 0.068,53.368 30.68,-43.013 c 1.78,-2.496 2.981,-4.461 3.604,-5.894 0.933,-2.071 1.4,-4.276 1.4,-6.612 0,-3.506 -1.092,-5.682 -3.275,-6.531 -0.58,-0.213 -1.158,-0.318 -1.736,-0.318 v -3.108 h 20.179 v 3.109 c -0.935,0.104 -1.793,0.409 -2.572,0.915 -0.779,0.503 -1.381,1.181 -1.805,2.031 -0.424,0.85 -0.701,1.846 -0.834,2.987 -0.135,1.142 -0.201,2.139 -0.201,2.988 v 53.062 c 0,1.486 0.1,3.12 0.301,4.899 0.201,1.78 0.701,3.281 1.504,4.501 0.668,1.01 1.402,1.647 2.205,1.912 0.535,0.107 1.068,0.213 1.603,0.319 v 3.107 H 78.345 v -3.109 c 1.082,-0.16 1.994,-0.44 2.738,-0.838 0.744,-0.398 1.385,-1.037 1.926,-1.914 0.541,-0.877 0.879,-1.689 1.013,-2.432 0.135,-0.746 0.204,-1.835 0.204,-3.27 V 29.762 11.738 L 70.794,31.835 c -0.445,0.691 -0.758,1.249 -0.936,1.676 -0.4,0.902 -0.601,1.726 -0.601,2.471 0,0.531 0.156,1.05 0.469,1.556 0.31,0.504 0.634,0.902 0.968,1.195 0.334,0.292 0.723,0.44 1.168,0.44 v 3.109 H 33.64 v -3.109 c 1.647,-0.268 2.94,-1.01 3.876,-2.231 0.444,-0.585 0.756,-1.648 0.935,-3.187 0.178,-1.541 0.268,-3.16 0.268,-4.859 v -1.993 -48.836 c 0,-2.709 -0.201,-5.138 -0.602,-7.289 -0.384,-2.058 -1.014,-3.44 -1.888,-4.16 -0.18,0.128 -0.36,0.253 -0.552,0.415 -0.534,0.451 -1.092,1.236 -1.67,2.351 -0.179,0.371 -0.424,0.875 -0.736,1.513 L 15.897,33.118 c -0.267,0.955 -0.424,1.486 -0.467,1.592 -0.134,0.531 -0.201,1.01 -0.201,1.435 0,0.424 0.088,0.849 0.267,1.274 0.401,0.902 1.136,1.354 2.205,1.354 v 3.509 h -29.603 v -3.03 c 0.311,-0.106 0.612,-0.239 0.902,-0.398 0.289,-0.16 0.578,-0.493 0.868,-0.998 0.29,-0.505 0.435,-1.13 0.435,-1.874 0,-0.532 -0.09,-1.116 -0.268,-1.754 -0.178,-0.638 -0.379,-1.276 -0.6,-1.915 l -18.513,-56.701 c -0.535,-1.754 -1.093,-3.123 -1.671,-4.107 -0.135,-0.23 -0.289,-0.464 -0.456,-0.7 -0.483,1.154 -0.992,2.496 -1.533,4.077 -2.406,7.115 -4.121,11.71 -5.146,13.782 -1.916,3.823 -3.754,7.263 -5.512,10.317 -1.761,3.053 -3.821,6.361 -6.182,9.92 0.356,0 1.647,0.77 3.876,2.31 2.94,2.071 5.323,4.328 7.15,6.771 2.539,3.453 3.809,7.144 3.809,11.076 0,0.423 -0.045,1.114 -0.133,2.071 -0.401,3.61 -1.972,6.374 -4.712,8.285 -2.739,1.911 -6.716,2.868 -11.928,2.868 h -46.778 v -3.109 c 0.936,0 1.738,-0.199 2.406,-0.599 0.668,-0.399 1.258,-1.129 1.771,-2.19 0.512,-1.063 0.857,-3.001 1.036,-5.817 0.044,-0.901 0.066,-2.175 0.066,-3.822 l -0.132,-52.181 c 0,-1.805 -0.134,-3.265 -0.402,-4.38 -0.267,-1.117 -0.847,-2.099 -1.737,-2.948 -0.668,-0.637 -1.236,-1.077 -1.704,-1.315 -0.468,-0.24 -1.081,-0.358 -1.838,-0.358 v -3.111 h 31.876 v 3.111 c -1.248,0.319 -2.028,0.558 -2.339,0.717 -0.669,0.371 -1.359,1.09 -2.072,2.155 -0.534,0.796 -0.902,1.74 -1.103,2.83 -0.2,1.089 -0.301,2.484 -0.301,4.187 v 22.489 l 3.542,1.994 c 1.337,-2.18 2.684,-4.386 4.043,-6.62 1.359,-2.232 2.484,-4.279 3.375,-6.14 3.029,-6.487 4.878,-10.607 5.546,-12.362 0.98,-2.605 1.471,-4.625 1.471,-6.06 0,-1.065 -0.268,-1.781 -0.802,-2.153 -0.98,-0.692 -2.072,-1.117 -3.274,-1.277 v -2.871 h 21.504 12.175 10.01 v 2.951 c -0.846,0.16 -1.603,0.465 -2.272,0.916 -0.668,0.452 -1.27,1.157 -1.804,2.114 -0.224,0.424 -0.334,1.196 -0.334,2.312 0,2.285 0.291,4.385 0.874,6.299 l 4.716,16.203 c 1.517,0 3.445,-0.252 5.786,-0.756 2.341,-0.504 4.113,-1.074 5.317,-1.711 3.078,-1.644 5.865,-4.136 8.362,-7.478 2.318,-3.078 3.634,-5.864 3.947,-8.356 0.089,-0.531 0.134,-1.273 0.134,-2.228 0,-2.865 -0.892,-4.935 -2.673,-6.207 -0.58,-0.371 -1.448,-0.69 -2.606,-0.955 v -3.104 h 28.835 5.78 z"
                 style="fill:#eb3c3e;fill-opacity:1;fill-rule:nonzero;stroke:none"
                 id="path26" />
            </g>
            <g
               id="g28"
               transform="translate(592.1562,298.2852)">
              <path
                 d="m 0,0 c 0.936,-0.106 1.781,-0.292 2.539,-0.558 l 2.272,-0.797 8.687,30.543 -2.271,1.356 C 10.469,27.036 8.688,23.394 5.881,19.618 3.385,16.216 0.779,13.584 -1.937,11.724 -3.766,10.5 -5.781,9.517 -7.986,8.772 c -2.205,-0.745 -4.356,-1.116 -6.448,-1.116 -1.916,0 -3.609,0.331 -5.08,0.997 -1.468,0.664 -2.605,1.66 -3.408,2.991 -0.801,1.328 -1.314,2.604 -1.537,3.828 -0.223,1.222 -0.334,2.711 -0.334,4.465 v 1.277 1.914 22.809 h 8.555 c 0.978,0 2.181,-0.36 3.607,-1.077 1.426,-0.718 2.695,-1.663 3.811,-2.832 1.111,-1.17 2.115,-2.765 3.006,-4.785 0.712,-1.648 1.158,-3.004 1.337,-4.066 l 2.54,0.478 -4.479,30.385 -2.004,-0.719 v -1.195 c 0,-2.287 -0.756,-4.227 -2.264,-5.822 -0.754,-0.745 -1.541,-1.264 -2.361,-1.555 -0.822,-0.293 -1.676,-0.439 -2.562,-0.439 h -9.385 v 8.693 c 0,1.646 0.187,3.082 0.568,4.307 0.377,1.222 1.035,2.258 1.971,3.109 1.426,1.277 3.631,1.914 6.615,1.914 2.674,0 5.391,-0.531 8.152,-1.594 2.762,-1.064 5.147,-2.633 7.151,-4.706 3.474,-3.669 5.724,-8.134 6.75,-13.397 L 8.42,54.629 3.541,81.585 C 2.783,81.229 2.182,81.001 1.738,80.9 1.648,80.9 1.047,80.8 -0.066,80.598 -2.205,80.191 -4.1,79.989 -5.748,79.989 H -6.949 -51.055 V 76.88 c 0.981,0 1.739,-0.094 2.272,-0.279 0.535,-0.188 1.07,-0.639 1.605,-1.356 0.533,-0.719 0.856,-1.435 0.969,-2.154 0.109,-0.717 0.166,-1.768 0.166,-3.151 V 69.063 12.441 c 0,-1.649 -0.1,-2.991 -0.301,-4.028 -0.199,-1.036 -0.658,-2.06 -1.369,-3.07 -0.535,-0.692 -0.992,-1.156 -1.371,-1.395 -0.379,-0.24 -1.236,-0.492 -2.572,-0.758 V 0.159 H -2.941 C -1.916,0.159 -0.936,0.107 0,0"
                 style="fill:#eb3c3e;fill-opacity:1;fill-rule:nonzero;stroke:none"
                 id="path30" />
            </g>
            <g
               id="g32"
               transform="translate(534.3027,334.1104)">
              <path
                 d="m 0,0 c 0,1.645 0.1,2.998 0.301,4.061 0.201,1.06 0.656,2.043 1.369,2.945 1.338,1.805 2.918,2.707 4.746,2.707 v 2.711 h -32.01 V 9.473 h 1.069 c 1.293,0 2.449,-0.584 3.474,-1.75 0.535,-0.637 0.903,-1.3 1.104,-1.991 0.201,-0.69 0.301,-1.936 0.301,-3.74 v -19.018 c 0,-3.13 -0.581,-5.625 -1.739,-7.482 -1.381,-2.176 -3.519,-3.262 -6.414,-3.262 -6.506,0 -11.762,3.879 -15.771,11.643 -3.432,6.592 -5.145,13.902 -5.145,21.932 0,0.637 0.01,1.169 0.033,1.594 0.022,0.425 0.055,0.878 0.1,1.357 0.623,7.814 2.34,14.195 5.146,19.14 3.385,5.954 7.997,8.931 13.832,8.931 3.743,0 7.997,-1.307 12.764,-3.924 1.914,-1.069 3.83,-2.964 5.746,-5.686 2.496,-3.525 4.121,-6.569 4.879,-9.131 l 1.67,1.039 -2.738,27.432 c -0.803,-0.745 -1.582,-1.489 -2.34,-2.233 -0.981,-0.638 -2.25,-0.957 -3.809,-0.957 -1.381,0 -2.896,0.211 -4.545,0.638 -3.207,0.798 -6.058,1.368 -8.552,1.715 -2.496,0.344 -5.168,0.518 -8.02,0.518 -5.258,0 -10.09,-0.785 -14.5,-2.353 -4.412,-1.569 -8.287,-4.055 -11.629,-7.456 -2.494,-2.596 -4.521,-5.505 -6.097,-8.716 v -40.307 c 1.095,-2.569 2.388,-5 3.892,-7.281 4.098,-6.221 9.112,-10.527 15.035,-12.92 4.768,-1.914 11.16,-2.871 19.18,-2.871 H 4.744 v 3.025 c -1.068,0.319 -1.883,0.676 -2.439,1.075 -0.557,0.398 -1.059,1.074 -1.502,2.03 -0.448,0.954 -0.715,1.884 -0.803,2.786 v 3.025 z"
                 style="fill:#eb3c3e;fill-opacity:1;fill-rule:nonzero;stroke:none"
                 id="path34" />
            </g>
            <g
               id="g36"
               transform="translate(151.6641,280.2236)">
              <path
                 d="m 0,0 c 0.446,0.1 1.013,0.148 1.697,0.148 4.998,-0.798 9.892,-1.599 14.68,-2.398 4.787,-0.801 9.102,-1.201 12.943,-1.201 4.787,0 14.158,1.068 19.419,3.201 6.419,2.6 10.981,6.264 14.875,10.998 4.736,5.801 7.25,12.766 7.25,20.898 0,6.18 -1.385,12.3 -4.803,17.508 -1.457,2.219 -3.375,4.061 -5.54,5.575 -3.951,2.759 -8.478,4.497 -12.997,6.082 -5.172,1.815 -10.304,3.718 -15.442,5.633 -3.611,1.347 -7.325,2.056 -10.142,4.944 -4.122,4.227 -3.001,11.124 0.783,15.183 1.756,1.885 4.829,3.351 7.295,3.934 8.962,2.118 15.346,-2.053 23.596,-10.053 1.944,-1.886 4,-6.125 4,-6.125 l 4.583,25.75 c -0.526,-0.335 -2.718,-1.766 -3.666,-2.5 -1.765,-1.366 -4.727,0.403 -6.482,1.038 -2.367,0.856 -4.777,1.592 -7.225,2.18 -4.922,1.18 -9.971,1.746 -15.031,1.746 -3.969,0 -8.296,-0.291 -12.16,-1.19 C 14.795,100.689 11.771,99.258 9.258,97.809 1.113,93.113 -2.783,84.773 -4.537,75.877 -5.61,70.432 -5.305,64.803 -3.071,59.678 0.104,52.392 5.743,46.202 13.141,43.146 c 0,0 25.222,-8.402 25.223,-8.402 1.821,-0.607 3.933,-2.39 5.043,-3.926 C 47.41,25.285 45.472,16.081 40.543,11.766 32.812,4.996 18.9,7.494 11.272,13.23 7.09,16.377 4.88,21.113 3.094,25.889 2.989,26.166 1.093,31.41 1.197,31.41 h -3.75 L -5.136,-3.451 c 0.578,0.535 2.952,2.051 3.558,2.551 0.604,0.5 1.131,0.798 1.578,0.9"
                 style="fill:#eb3c3e;fill-opacity:1;fill-rule:nonzero;stroke:none"
                 id="path38" />
              <path
                 id="path154"
                 style="fill:#eb3c3e;fill-opacity:1;fill-rule:nonzero;stroke:none"
                 d="m 0,0 c 0.446,0.1 1.013,0.148 1.697,0.148 4.998,-0.798 9.892,-1.599 14.68,-2.398 4.787,-0.801 9.102,-1.201 12.943,-1.201 4.787,0 14.158,1.068 19.419,3.201 6.419,2.6 10.981,6.264 14.875,10.998 4.736,5.801 7.25,12.766 7.25,20.898 0,6.18 -1.385,12.3 -4.803,17.508 -1.457,2.219 -3.375,4.061 -5.54,5.575 -3.951,2.759 -8.478,4.497 -12.997,6.082 -5.172,1.815 -10.304,3.718 -15.442,5.633 -3.611,1.347 -7.325,2.056 -10.142,4.944 -4.122,4.227 -3.001,11.124 0.783,15.183 1.756,1.885 4.829,3.351 7.295,3.934 8.962,2.118 15.346,-2.053 23.596,-10.053 1.944,-1.886 4,-6.125 4,-6.125 l 4.583,25.75 c -0.526,-0.335 -2.718,-1.766 -3.666,-2.5 -1.765,-1.366 -4.727,0.403 -6.482,1.038 -2.367,0.856 -4.777,1.592 -7.225,2.18 -4.922,1.18 -9.971,1.746 -15.031,1.746 -3.969,0 -8.296,-0.291 -12.16,-1.19 C 14.795,100.689 11.771,99.258 9.258,97.809 1.113,93.113 -2.783,84.773 -4.537,75.877 -5.61,70.432 -5.305,64.803 -3.071,59.678 0.104,52.392 5.743,46.202 13.141,43.146 c 0,0 25.222,-8.402 25.223,-8.402 1.821,-0.607 3.933,-2.39 5.043,-3.926 C 47.41,25.285 45.472,16.081 40.543,11.766 32.812,4.996 18.9,7.494 11.272,13.23 7.09,16.377 4.88,21.113 3.094,25.889 2.989,26.166 1.093,31.41 1.197,31.41 h -3.75 L -5.136,-3.451 c 0.578,0.535 2.952,2.051 3.558,2.551 0.604,0.5 1.131,0.798 1.578,0.9" />
            </g>
            <g
               id="g40"
               transform="translate(649.0781,343.0029)" />
            <g
               id="g44"
               transform="translate(291.2402,283.9268)">
              <path
                 d="M 0,0 C -0.892,-0.668 -1.815,-1.168 -2.772,-1.5 -3.731,-1.834 -4.477,-2.016 -5.012,-2.045 -5.546,-2.076 -6.147,-2.09 -6.815,-2.09 h -40.096 -1.938 c -0.089,0 -0.457,0.026 -1.102,0.08 -0.647,0.053 -1.148,0.16 -1.504,0.323 -0.892,0.48 -1.627,1.044 -2.205,1.687 l -4.812,-27.895 2.005,-0.484 c 0.402,1.822 1.27,4.02 2.607,6.592 1.112,2.144 2.226,3.779 3.34,4.904 2.228,2.143 4.299,3.658 6.215,4.543 1.915,0.883 4.21,1.326 6.883,1.326 v -57.345 c 0,-2.299 -0.09,-4.01 -0.266,-5.133 -0.179,-1.123 -0.736,-2.221 -1.671,-3.289 -1.561,-1.764 -3.208,-2.647 -4.946,-2.647 -0.401,0 -0.713,-0.027 -0.935,-0.08 v -3.055 h 36.62 v 3.135 c -1.426,0 -2.607,0.199 -3.542,0.602 -0.936,0.402 -1.793,1.191 -2.572,2.369 -0.781,1.178 -1.293,2.516 -1.537,4.016 -0.246,1.498 -0.368,3.185 -0.368,5.058 v 1.606 l -0.067,54.763 c 3.208,0 6.025,-0.711 8.453,-2.131 2.428,-1.419 4.689,-3.63 6.783,-6.632 1.871,-2.68 3.185,-5.627 3.943,-8.842 l 2.005,0.728 z"
                 style="fill:#eb3c3e;fill-opacity:1;fill-rule:nonzero;stroke:none"
                 id="path46" />
            </g>
            <g
               id="g48"
               transform="translate(335.5225,275.3506)">
              <path
                 d="M 0,0 C 0.806,-0.156 1.409,-0.287 1.812,-0.391 2.93,-0.754 3.691,-1.246 4.094,-1.871 4.675,-2.805 5.089,-3.818 5.336,-4.91 5.581,-6 5.705,-7.947 5.705,-10.754 v -7.168 h -20.068 v 7.402 c 0,3.584 0.692,6.442 2.08,8.571 0.492,0.728 1.163,1.234 2.013,1.519 C -9.42,-0.145 -8.726,0 -8.188,0 V 3.039 H -40.54 V 0 c 1.029,-0.156 1.879,-0.402 2.551,-0.74 0.671,-0.338 1.275,-0.936 1.811,-1.793 0.537,-0.858 0.873,-1.701 1.007,-2.531 0.135,-0.832 0.202,-2.104 0.202,-3.819 v -1.092 l 0.134,-50.959 c 0,-1.712 -0.225,-3.519 -0.671,-5.414 -0.448,-1.898 -0.895,-3.078 -1.343,-3.547 -0.85,-0.83 -1.443,-1.337 -1.778,-1.519 -0.336,-0.182 -0.951,-0.377 -1.846,-0.584 v -2.961 H -8.39 v 3.039 c -1.836,0 -3.356,0.805 -4.564,2.412 -0.627,0.881 -1.019,1.737 -1.175,2.567 -0.157,0.83 -0.234,1.97 -0.234,3.421 v 37.651 H 5.57 v -37.805 c 0,-1.246 -0.1,-2.347 -0.301,-3.306 -0.202,-0.959 -0.571,-1.829 -1.108,-2.606 -1.119,-1.557 -2.617,-2.334 -4.497,-2.334 v -3.039 h 32.553 v 3.039 c -1.701,0 -3.043,0.57 -4.028,1.713 -0.492,0.623 -0.861,1.57 -1.107,2.84 -0.246,1.271 -0.369,2.66 -0.369,4.166 l -0.134,52.93 c 0,1.71 0.101,3.189 0.302,4.435 0.201,1.246 0.614,2.389 1.242,3.426 0.626,1.037 1.431,1.713 2.416,2.023 0.581,0.104 1.185,0.235 1.813,0.391 V 3.039 H 0 Z"
                 style="fill:#eb3c3e;fill-opacity:1;fill-rule:nonzero;stroke:none"
                 id="path50" />
            </g>
            <g
               id="g52"
               transform="translate(371.4473,275.3545)" />
            <g
               id="g56"
               transform="translate(468.0605,206.3076)">
              <path
                 d="m 0,0 c -0.426,0.83 -0.705,1.803 -0.838,2.918 -0.135,1.115 -0.201,2.09 -0.201,2.92 v 51.844 c 0,1.451 0.1,3.048 0.301,4.787 0.201,1.738 0.705,3.203 1.509,4.396 0.672,0.987 1.411,1.61 2.215,1.869 l 1.612,0.311 v 3.037 h -20.27 v -3.039 c 1.086,-0.156 2.004,-0.43 2.75,-0.818 0.746,-0.391 1.391,-1.014 1.936,-1.871 0.543,-0.856 0.881,-1.649 1.017,-2.375 0.135,-0.729 0.203,-1.793 0.203,-3.196 v -0.935 -17.61 l -13.49,19.637 c -0.447,0.674 -0.762,1.219 -0.939,1.635 -0.405,0.883 -0.606,1.687 -0.606,2.416 0,0.519 0.156,1.025 0.471,1.519 0.312,0.493 0.637,0.883 0.973,1.168 0.336,0.285 0.726,0.43 1.175,0.43 v 3.039 h -38.392 v -3.039 c 1.655,-0.262 2.953,-0.986 3.893,-2.18 0.447,-0.57 0.76,-1.609 0.94,-3.113 0.178,-1.506 0.268,-3.088 0.268,-4.748 V 57.055 9.34 c 0,-2.647 -0.201,-5.02 -0.604,-7.121 -0.402,-2.102 -1.073,-3.49 -2.014,-4.164 -0.537,-0.364 -0.963,-0.584 -1.275,-0.662 -0.314,-0.079 -0.896,-0.17 -1.745,-0.274 v -3.035 h 19.531 v 3.035 c -1.06,0.207 -1.921,0.533 -2.584,0.973 -0.662,0.441 -1.182,1.076 -1.557,1.906 -0.375,0.832 -0.64,1.699 -0.795,2.607 -0.155,0.909 -0.231,2.01 -0.231,3.309 l 0.066,52.143 30.818,-42.026 c 1.785,-2.439 2.992,-4.359 3.617,-5.76 0.937,-2.023 1.406,-4.175 1.406,-6.458 0,-3.426 -1.096,-5.553 -3.289,-6.381 -0.582,-0.209 -1.164,-0.313 -1.744,-0.313 V -5.916 H 4.396 v 3.037 c -0.939,0.102 -1.8,0.4 -2.584,0.893 C 1.029,-1.492 0.426,-0.83 0,0"
                 style="fill:#eb3c3e;fill-opacity:1;fill-rule:nonzero;stroke:none"
                 id="path58" />
            </g>
            <g
               id="g60"
               transform="translate(591.5449,246.6768)">
              <path
                 d="m 0,0 -16.107,6 c -2.819,1.037 -4.901,2.389 -6.243,4.051 -1.074,1.349 -1.611,2.883 -1.611,4.597 0,1.143 0.156,2.233 0.471,3.272 0.178,0.625 0.469,1.351 0.873,2.182 0.625,1.351 1.586,2.351 2.885,3 1.296,0.65 2.82,0.974 4.564,0.974 2.014,0 4.117,-0.416 6.309,-1.246 2.193,-0.832 4.138,-1.924 5.839,-3.273 2.104,-1.662 4.049,-4.442 5.84,-8.338 C 3.58,9.609 4.027,8.414 4.162,7.635 L 6.578,8.492 4.297,33.816 C 3.85,33.555 3.223,33.141 2.418,32.57 1.344,31.945 0.314,31.479 -0.67,31.166 -0.805,31.115 -1.051,31.09 -1.408,31.09 c -3.043,0.674 -5.996,1.349 -8.86,2.025 -2.865,0.674 -5.461,1.012 -7.787,1.012 -1.789,0 -3.49,-0.182 -5.099,-0.545 -6.623,-1.559 -11.971,-4.441 -16.043,-8.648 -4.563,-4.729 -6.846,-10.495 -6.846,-17.299 0,-4.936 1.297,-9.143 3.893,-12.623 2.371,-3.168 5.683,-5.559 9.933,-7.168 l 17.721,-6.78 c 1.609,-0.623 2.896,-1.648 3.859,-3.078 0.961,-1.427 1.444,-3.103 1.444,-5.025 0,-0.832 -0.047,-1.481 -0.135,-1.947 -0.537,-3.118 -2.014,-5.534 -4.43,-7.246 -2.416,-1.715 -5.326,-2.573 -8.726,-2.573 -3.088,0 -6.254,0.78 -9.496,2.338 -3.247,1.559 -6.053,3.791 -8.424,6.701 -1.657,2.026 -3.112,4.78 -4.364,8.26 -0.984,2.699 -1.543,4.83 -1.677,6.389 l -2.416,-0.311 2.617,-32.26 c 0.492,0.417 0.996,0.819 1.51,1.209 0.513,0.389 0.963,0.624 1.343,0.702 0.379,0.076 0.86,0.115 1.442,0.115 4.252,-0.623 8.412,-1.246 12.484,-1.869 4.072,-0.623 7.742,-0.936 11.008,-0.936 4.072,0 8.346,0.832 12.82,2.494 5.459,2.026 9.844,4.881 13.155,8.571 4.027,4.519 6.041,9.947 6.041,16.285 0,5.299 -1.198,9.74 -3.59,13.324 C 7.574,-4.209 4.252,-1.611 0,0"
                 style="fill:#eb3c3e;fill-opacity:1;fill-rule:nonzero;stroke:none"
                 id="path62" />
            </g>
            <g
               id="g64"
               transform="translate(538.1055,206.5205)">
              <path
                 d="m 0,0 c -0.447,0.955 -0.715,1.885 -0.803,2.787 v 3.025 23.725 c 0,1.645 0.1,2.998 0.301,4.059 0.201,1.062 0.656,2.045 1.369,2.947 1.338,1.803 2.918,2.705 4.746,2.705 v 2.713 H -26.396 V 39.01 h 1.068 c 1.293,0 2.449,-0.584 3.474,-1.752 0.536,-0.637 0.903,-1.299 1.104,-1.988 0.201,-0.692 0.301,-1.938 0.301,-3.741 V 12.51 c 0,-3.131 -0.58,-5.625 -1.738,-7.481 -1.381,-2.175 -3.52,-3.263 -6.415,-3.263 -6.505,0 -11.761,3.88 -15.771,11.644 -3.432,6.592 -5.145,13.902 -5.145,21.932 0,0.637 0.01,1.168 0.034,1.594 0.021,0.425 0.054,0.877 0.099,1.355 0.623,7.816 2.34,14.195 5.147,19.141 3.384,5.953 7.996,8.931 13.832,8.931 3.742,0 7.996,-1.308 12.763,-3.924 1.914,-1.068 3.83,-2.964 5.747,-5.687 2.496,-3.523 4.121,-6.568 4.878,-9.129 l 1.67,1.039 -2.738,27.432 c -0.803,-0.746 -1.582,-1.49 -2.34,-2.235 -0.98,-0.636 -2.25,-0.957 -3.808,-0.957 -1.381,0 -2.897,0.213 -4.545,0.639 -3.207,0.797 -6.059,1.369 -8.553,1.715 -2.496,0.346 -5.168,0.517 -8.02,0.517 -5.257,0 -10.089,-0.785 -14.5,-2.351 -4.412,-1.568 -8.287,-4.055 -11.628,-7.457 -2.495,-2.596 -4.522,-5.504 -6.098,-8.715 V 16.941 c 1.096,-2.568 2.389,-4.998 3.892,-7.279 4.098,-6.221 9.112,-10.527 15.036,-12.92 4.767,-1.914 11.16,-2.871 19.179,-2.871 H 3.941 v 3.025 C 2.873,-2.785 2.059,-2.428 1.502,-2.029 0.945,-1.633 0.443,-0.955 0,0"
                 style="fill:#eb3c3e;fill-opacity:1;fill-rule:nonzero;stroke:none"
                 id="path66" />
            </g>
            <path
               d="m 146.528,258.134 h 80.5 v 7.289 h -80.5 z"
               style="fill:#eb3c3e;fill-opacity:1;fill-rule:nonzero;stroke:none"
               id="path68" />
            <path
               d="m 601.861,258.134 h 93.5 v 7.289 h -93.5 z"
               style="fill:#eb3c3e;fill-opacity:1;fill-rule:nonzero;stroke:none"
               id="path70" />
            <path
               d="M 683.695,397.07 H 146.528 v -6.603 h 537.167 z"
               style="fill:#eb3c3e;fill-opacity:1;fill-rule:nonzero;stroke:none"
               id="path72" />
          </g>
        </g>
      </g>
    </a>
  </g>
  <g
     style="display:inline"
     id="layer3">
    <path
       d="M 683.695,397.07 H 146.528 v -6.603 h 537.167 z"
       style="fill:#eb3c3e;fill-opacity:1;fill-rule:nonzero;stroke:none"
       id="path151"
       transform="matrix(0.35277777,0,0,-0.35277777,-51.69182,140.07747)" />
    <path
       d="m 0,0 c 0.446,0.1 1.013,0.148 1.697,0.148 4.998,-0.798 9.892,-1.599 14.68,-2.398 4.787,-0.801 9.102,-1.201 12.943,-1.201 4.787,0 14.158,1.068 19.419,3.201 6.419,2.6 10.981,6.264 14.875,10.998 4.736,5.801 7.25,12.766 7.25,20.898 0,6.18 -1.385,12.3 -4.803,17.508 -1.457,2.219 -3.375,4.061 -5.54,5.575 -3.951,2.759 -8.478,4.497 -12.997,6.082 -5.172,1.815 -10.304,3.718 -15.442,5.633 -3.611,1.347 -7.325,2.056 -10.142,4.944 -4.122,4.227 -3.001,11.124 0.783,15.183 1.756,1.885 4.829,3.351 7.295,3.934 8.962,2.118 15.346,-2.053 23.596,-10.053 1.944,-1.886 4,-6.125 4,-6.125 l 4.583,25.75 c -0.526,-0.335 -2.718,-1.766 -3.666,-2.5 -1.765,-1.366 -4.727,0.403 -6.482,1.038 -2.367,0.856 -4.777,1.592 -7.225,2.18 -4.922,1.18 -9.971,1.746 -15.031,1.746 -3.969,0 -8.296,-0.291 -12.16,-1.19 C 14.795,100.689 11.771,99.258 9.258,97.809 1.113,93.113 -2.783,84.773 -4.537,75.877 -5.61,70.432 -5.305,64.803 -3.071,59.678 0.104,52.392 5.743,46.202 13.141,43.146 c 0,0 25.222,-8.402 25.223,-8.402 1.821,-0.607 3.933,-2.39 5.043,-3.926 C 47.41,25.285 45.472,16.081 40.543,11.766 32.812,4.996 18.9,7.494 11.272,13.23 7.09,16.377 4.88,21.113 3.094,25.889 2.989,26.166 1.093,31.41 1.197,31.41 h -3.75 L -5.136,-3.451 c 0.578,0.535 2.952,2.051 3.558,2.551 0.604,0.5 1.131,0.798 1.578,0.9"
       style="display:inline;fill:#eb3c3e;fill-opacity:1;fill-rule:nonzero;stroke:none"
       id="path3892"
       transform="matrix(0.35277777,0,0,-0.35277777,1.8119019,41.220813)" />
    <path
       id="path3895"
       style="display:inline;fill:#eb3c3e;fill-opacity:1;fill-rule:nonzero;stroke:none"
       d="M 0,0 C 1.871,-2.659 3.185,-5.582 3.942,-8.772 L 5.947,-8.049 1.47,19.619 C 0.578,18.957 -0.346,18.461 -1.304,18.131 -2.262,17.799 -3.008,17.62 -3.542,17.59 -4.077,17.561 -4.678,17.545 -5.347,17.545 h -40.094 -1.939 c -0.09,0 -0.457,0.026 -1.102,0.08 -0.647,0.053 -1.148,0.16 -1.503,0.318 -0.892,0.479 -1.627,1.037 -2.205,1.676 l -4.812,-27.672 2.004,-0.48 c 0.401,1.806 1.27,3.988 2.606,6.539 1.114,2.127 2.228,3.749 3.342,4.865 2.227,2.126 4.299,3.629 6.215,4.506 1.914,0.877 4.21,1.316 6.883,1.316 v -56.888 c 0,-2.281 -0.09,-3.977 -0.268,-5.092 -0.178,-1.113 -0.735,-2.201 -1.671,-3.262 -1.559,-1.751 -3.207,-2.625 -4.944,-2.625 -0.401,0 -0.714,-0.027 -0.936,-0.08 v -3.031 H -7.15 v 3.111 c -1.427,0 -2.607,0.197 -3.542,0.596 -0.936,0.399 -1.794,1.182 -2.574,2.35 -0.779,1.169 -1.292,2.497 -1.536,3.984 -0.246,1.486 -0.368,3.159 -0.368,5.018 v 1.593 l -0.066,54.326 c 3.207,0 6.024,-0.705 8.453,-2.113 C -4.355,5.17 -2.095,2.977 0,0"
       transform="matrix(0.35277777,0,0,-0.35277777,43.242264,12.820121)" />
    <path
       id="path3898"
       style="display:inline;fill:#eb3c3e;fill-opacity:1;fill-rule:nonzero;stroke:none"
       d="m 0,0 c 0,1.645 0.1,2.998 0.301,4.061 0.201,1.06 0.656,2.043 1.369,2.945 1.338,1.805 2.918,2.707 4.746,2.707 v 2.711 h -32.01 V 9.473 h 1.069 c 1.293,0 2.449,-0.584 3.474,-1.75 0.535,-0.637 0.903,-1.3 1.104,-1.991 0.201,-0.69 0.301,-1.936 0.301,-3.74 v -19.018 c 0,-3.13 -0.581,-5.625 -1.739,-7.482 -1.381,-2.176 -3.519,-3.262 -6.414,-3.262 -6.506,0 -11.762,3.879 -15.771,11.643 -3.432,6.592 -5.145,13.902 -5.145,21.932 0,0.637 0.01,1.169 0.033,1.594 0.022,0.425 0.055,0.878 0.1,1.357 0.623,7.814 2.34,14.195 5.146,19.14 3.385,5.954 7.997,8.931 13.832,8.931 3.743,0 7.997,-1.307 12.764,-3.924 1.914,-1.069 3.83,-2.964 5.746,-5.686 2.496,-3.525 4.121,-6.569 4.879,-9.131 l 1.67,1.039 -2.738,27.432 c -0.803,-0.745 -1.582,-1.489 -2.34,-2.233 -0.981,-0.638 -2.25,-0.957 -3.809,-0.957 -1.381,0 -2.896,0.211 -4.545,0.638 -3.207,0.798 -6.058,1.368 -8.552,1.715 -2.496,0.344 -5.168,0.518 -8.02,0.518 -5.258,0 -10.09,-0.785 -14.5,-2.353 -4.412,-1.569 -8.287,-4.055 -11.629,-7.456 -2.494,-2.596 -4.521,-5.505 -6.097,-8.716 v -40.307 c 1.095,-2.569 2.388,-5 3.892,-7.281 4.098,-6.221 9.112,-10.527 15.035,-12.92 4.768,-1.914 11.16,-2.871 19.18,-2.871 H 4.744 v 3.025 c -1.068,0.319 -1.883,0.676 -2.439,1.075 -0.557,0.398 -1.059,1.074 -1.502,2.03 -0.448,0.954 -0.715,1.884 -0.803,2.786 v 3.025 z"
       transform="matrix(0.35277777,0,0,-0.35277777,136.79829,22.210747)" />
    <path
       id="path3901"
       style="display:inline;fill:#eb3c3e;fill-opacity:1;fill-rule:nonzero;stroke:none"
       d="m 0,0 c 0.936,-0.106 1.781,-0.292 2.539,-0.558 l 2.272,-0.797 8.687,30.543 -2.271,1.356 C 10.469,27.036 8.688,23.394 5.881,19.618 3.385,16.216 0.779,13.584 -1.937,11.724 -3.766,10.5 -5.781,9.517 -7.986,8.772 c -2.205,-0.745 -4.356,-1.116 -6.448,-1.116 -1.916,0 -3.609,0.331 -5.08,0.997 -1.468,0.664 -2.605,1.66 -3.408,2.991 -0.801,1.328 -1.314,2.604 -1.537,3.828 -0.223,1.222 -0.334,2.711 -0.334,4.465 v 1.277 1.914 22.809 h 8.555 c 0.978,0 2.181,-0.36 3.607,-1.077 1.426,-0.718 2.695,-1.663 3.811,-2.832 1.111,-1.17 2.115,-2.765 3.006,-4.785 0.712,-1.648 1.158,-3.004 1.337,-4.066 l 2.54,0.478 -4.479,30.385 -2.004,-0.719 v -1.195 c 0,-2.287 -0.756,-4.227 -2.264,-5.822 -0.754,-0.745 -1.541,-1.264 -2.361,-1.555 -0.822,-0.293 -1.676,-0.439 -2.562,-0.439 h -9.385 v 8.693 c 0,1.646 0.187,3.082 0.568,4.307 0.377,1.222 1.035,2.258 1.971,3.109 1.426,1.277 3.631,1.914 6.615,1.914 2.674,0 5.391,-0.531 8.152,-1.594 2.762,-1.064 5.147,-2.633 7.151,-4.706 3.474,-3.669 5.724,-8.134 6.75,-13.397 L 8.42,54.629 3.541,81.585 C 2.783,81.229 2.182,81.001 1.738,80.9 1.648,80.9 1.047,80.8 -0.066,80.598 -2.205,80.191 -4.1,79.989 -5.748,79.989 H -6.949 -51.055 V 76.88 c 0.981,0 1.739,-0.094 2.272,-0.279 0.535,-0.188 1.07,-0.639 1.605,-1.356 0.533,-0.719 0.856,-1.435 0.969,-2.154 0.109,-0.717 0.166,-1.768 0.166,-3.151 V 69.063 12.441 c 0,-1.649 -0.1,-2.991 -0.301,-4.028 -0.199,-1.036 -0.658,-2.06 -1.369,-3.07 -0.535,-0.692 -0.992,-1.156 -1.371,-1.395 -0.379,-0.24 -1.236,-0.492 -2.572,-0.758 V 0.159 H -2.941 C -1.916,0.159 -0.936,0.107 0,0"
       transform="matrix(0.35277777,0,0,-0.35277777,157.20772,34.84908)" />
    <path
       d="m 0,0 c -3.303,-3.408 -7.119,-5.998 -11.447,-7.77 l -2.989,-1.125 v 25.663 c 0,1.703 0.213,3.185 0.641,4.447 0.426,1.261 1.18,2.164 2.264,2.71 1.935,0.954 4.013,1.43 6.234,1.43 3.246,0 5.924,-0.886 8.031,-2.658 2.448,-2.045 3.672,-4.84 3.672,-8.383 C 6.406,9.202 4.271,4.431 0,0 m 22.852,-19.217 c -2.252,3.915 -4.885,8.154 -7.903,12.717 0.455,0 2.106,0.988 4.955,2.963 3.758,2.654 6.805,5.547 9.141,8.68 3.246,4.425 4.869,9.158 4.869,14.199 0,0.543 -0.059,1.428 -0.172,2.654 -0.512,4.63 -2.519,8.172 -6.021,10.622 -3.504,2.45 -8.586,3.677 -15.248,3.677 h -59.797 v -3.986 c 1.195,0 2.22,-0.256 3.074,-0.768 0.855,-0.511 1.609,-1.447 2.264,-2.809 0.654,-1.36 1.097,-3.845 1.324,-7.455 0.057,-1.156 0.086,-2.791 0.086,-4.9 l -0.17,-66.897 c 0,-2.314 -0.172,-4.185 -0.514,-5.615 -0.342,-1.431 -1.082,-2.691 -2.22,-3.779 -0.854,-0.818 -1.581,-1.379 -2.178,-1.686 -0.598,-0.308 -1.381,-0.459 -2.35,-0.459 v -3.988 h 40.746 v 3.988 c -1.593,0.409 -2.592,0.715 -2.988,0.92 -0.855,0.477 -1.738,1.397 -2.648,2.76 -0.684,1.024 -1.155,2.233 -1.411,3.631 -0.255,1.396 -0.384,3.185 -0.384,5.367 v 28.832 l 4.527,2.555 c 1.709,-2.795 3.432,-5.623 5.168,-8.485 1.738,-2.863 3.176,-5.488 4.314,-7.873 3.873,-8.316 6.237,-13.597 7.09,-15.847 1.252,-3.34 1.881,-5.93 1.881,-7.77 0,-1.365 -0.342,-2.285 -1.025,-2.761 -1.254,-0.887 -2.649,-1.432 -4.186,-1.635 v -3.682 h 43.053 v 3.473 c -1.596,0.342 -2.934,0.783 -4.016,1.328 -1.48,0.748 -3.359,4.459 -5.636,11.133 -3.077,9.124 -5.27,15.013 -6.579,17.67 -2.449,4.902 -4.798,9.31 -7.046,13.226"
       style="display:inline;fill:#eb3c3e;fill-opacity:1;fill-rule:nonzero;stroke:none"
       id="path42"
       transform="matrix(0.35277777,0,0,-0.35277777,177.2885,19.073671)" />
    <path
       id="path3905"
       style="display:inline;fill:#eb3c3e;fill-opacity:1;fill-rule:nonzero;stroke:none"
       d="m 601.861,258.134 h 93.5 v 7.289 h -93.5 z"
       transform="matrix(0.35277777,0,0,-0.35277777,-51.69182,140.07747)" />
    <path
       id="path3908"
       style="display:inline;fill:#eb3c3e;fill-opacity:1;fill-rule:nonzero;stroke:none"
       d="m 0,0 -16.107,6 c -2.819,1.037 -4.901,2.389 -6.243,4.051 -1.074,1.349 -1.611,2.883 -1.611,4.597 0,1.143 0.156,2.233 0.471,3.272 0.178,0.625 0.469,1.351 0.873,2.182 0.625,1.351 1.586,2.351 2.885,3 1.296,0.65 2.82,0.974 4.564,0.974 2.014,0 4.117,-0.416 6.309,-1.246 2.193,-0.832 4.138,-1.924 5.839,-3.273 2.104,-1.662 4.049,-4.442 5.84,-8.338 C 3.58,9.609 4.027,8.414 4.162,7.635 L 6.578,8.492 4.297,33.816 C 3.85,33.555 3.223,33.141 2.418,32.57 1.344,31.945 0.314,31.479 -0.67,31.166 -0.805,31.115 -1.051,31.09 -1.408,31.09 c -3.043,0.674 -5.996,1.349 -8.86,2.025 -2.865,0.674 -5.461,1.012 -7.787,1.012 -1.789,0 -3.49,-0.182 -5.099,-0.545 -6.623,-1.559 -11.971,-4.441 -16.043,-8.648 -4.563,-4.729 -6.846,-10.495 -6.846,-17.299 0,-4.936 1.297,-9.143 3.893,-12.623 2.371,-3.168 5.683,-5.559 9.933,-7.168 l 17.721,-6.78 c 1.609,-0.623 2.896,-1.648 3.859,-3.078 0.961,-1.427 1.444,-3.103 1.444,-5.025 0,-0.832 -0.047,-1.481 -0.135,-1.947 -0.537,-3.118 -2.014,-5.534 -4.43,-7.246 -2.416,-1.715 -5.326,-2.573 -8.726,-2.573 -3.088,0 -6.254,0.78 -9.496,2.338 -3.247,1.559 -6.053,3.791 -8.424,6.701 -1.657,2.026 -3.112,4.78 -4.364,8.26 -0.984,2.699 -1.543,4.83 -1.677,6.389 l -2.416,-0.311 2.617,-32.26 c 0.492,0.417 0.996,0.819 1.51,1.209 0.513,0.389 0.963,0.624 1.343,0.702 0.379,0.076 0.86,0.115 1.442,0.115 4.252,-0.623 8.412,-1.246 12.484,-1.869 4.072,-0.623 7.742,-0.936 11.008,-0.936 4.072,0 8.346,0.832 12.82,2.494 5.459,2.026 9.844,4.881 13.155,8.571 4.027,4.519 6.041,9.947 6.041,16.285 0,5.299 -1.198,9.74 -3.59,13.324 C 7.574,-4.209 4.252,-1.611 0,0"
       transform="matrix(0.35277777,0,0,-0.35277777,156.99207,53.055377)" />
    <path
       id="path3911"
       style="display:inline;fill:#eb3c3e;fill-opacity:1;fill-rule:nonzero;stroke:none"
       d="m 0,0 c -0.447,0.955 -0.715,1.885 -0.803,2.787 v 3.025 23.725 c 0,1.645 0.1,2.998 0.301,4.059 0.201,1.062 0.656,2.045 1.369,2.947 1.338,1.803 2.918,2.705 4.746,2.705 v 2.713 H -26.396 V 39.01 h 1.068 c 1.293,0 2.449,-0.584 3.474,-1.752 0.536,-0.637 0.903,-1.299 1.104,-1.988 0.201,-0.692 0.301,-1.938 0.301,-3.741 V 12.51 c 0,-3.131 -0.58,-5.625 -1.738,-7.481 -1.381,-2.175 -3.52,-3.263 -6.415,-3.263 -6.505,0 -11.761,3.88 -15.771,11.644 -3.432,6.592 -5.145,13.902 -5.145,21.932 0,0.637 0.01,1.168 0.034,1.594 0.021,0.425 0.054,0.877 0.099,1.355 0.623,7.816 2.34,14.195 5.147,19.141 3.384,5.953 7.996,8.931 13.832,8.931 3.742,0 7.996,-1.308 12.763,-3.924 1.914,-1.068 3.83,-2.964 5.747,-5.687 2.496,-3.523 4.121,-6.568 4.878,-9.129 l 1.67,1.039 -2.738,27.432 c -0.803,-0.746 -1.582,-1.49 -2.34,-2.235 -0.98,-0.636 -2.25,-0.957 -3.808,-0.957 -1.381,0 -2.897,0.213 -4.545,0.639 -3.207,0.797 -6.059,1.369 -8.553,1.715 -2.496,0.346 -5.168,0.517 -8.02,0.517 -5.257,0 -10.089,-0.785 -14.5,-2.351 -4.412,-1.568 -8.287,-4.055 -11.628,-7.457 -2.495,-2.596 -4.522,-5.504 -6.098,-8.715 V 16.941 c 1.096,-2.568 2.389,-4.998 3.892,-7.279 4.098,-6.221 9.112,-10.527 15.036,-12.92 4.767,-1.914 11.16,-2.871 19.179,-2.871 H 3.941 v 3.025 C 2.873,-2.785 2.059,-2.428 1.502,-2.029 0.945,-1.633 0.443,-0.955 0,0"
       transform="matrix(0.35277777,0,0,-0.35277777,138.13984,67.221627)" />
    <path
       id="path3914"
       style="display:inline;fill:#eb3c3e;fill-opacity:1;fill-rule:nonzero;stroke:none"
       d="m 0,0 c -0.426,0.83 -0.705,1.803 -0.838,2.918 -0.135,1.115 -0.201,2.09 -0.201,2.92 v 51.844 c 0,1.451 0.1,3.048 0.301,4.787 0.201,1.738 0.705,3.203 1.509,4.396 0.672,0.987 1.411,1.61 2.215,1.869 l 1.612,0.311 v 3.037 h -20.27 v -3.039 c 1.086,-0.156 2.004,-0.43 2.75,-0.818 0.746,-0.391 1.391,-1.014 1.936,-1.871 0.543,-0.856 0.881,-1.649 1.017,-2.375 0.135,-0.729 0.203,-1.793 0.203,-3.196 v -0.935 -17.61 l -13.49,19.637 c -0.447,0.674 -0.762,1.219 -0.939,1.635 -0.405,0.883 -0.606,1.687 -0.606,2.416 0,0.519 0.156,1.025 0.471,1.519 0.312,0.493 0.637,0.883 0.973,1.168 0.336,0.285 0.726,0.43 1.175,0.43 v 3.039 h -38.392 v -3.039 c 1.655,-0.262 2.953,-0.986 3.893,-2.18 0.447,-0.57 0.76,-1.609 0.94,-3.113 0.178,-1.506 0.268,-3.088 0.268,-4.748 V 57.055 9.34 c 0,-2.647 -0.201,-5.02 -0.604,-7.121 -0.402,-2.102 -1.073,-3.49 -2.014,-4.164 -0.537,-0.364 -0.963,-0.584 -1.275,-0.662 -0.314,-0.079 -0.896,-0.17 -1.745,-0.274 v -3.035 h 19.531 v 3.035 c -1.06,0.207 -1.921,0.533 -2.584,0.973 -0.662,0.441 -1.182,1.076 -1.557,1.906 -0.375,0.832 -0.64,1.699 -0.795,2.607 -0.155,0.909 -0.231,2.01 -0.231,3.309 l 0.066,52.143 30.818,-42.026 c 1.785,-2.439 2.992,-4.359 3.617,-5.76 0.937,-2.023 1.406,-4.175 1.406,-6.458 0,-3.426 -1.096,-5.553 -3.289,-6.381 -0.582,-0.209 -1.164,-0.313 -1.744,-0.313 V -5.916 H 4.396 v 3.037 c -0.939,0.102 -1.8,0.4 -2.584,0.893 C 1.029,-1.492 0.426,-0.83 0,0"
       transform="matrix(0.35277777,0,0,-0.35277777,113.42952,67.296734)" />
    <path
       d="M 0,0 C 1.253,-0.209 2.215,-0.455 2.887,-0.74 3.558,-1.025 4.071,-1.455 4.43,-2.025 5.102,-3.063 5.526,-4.23 5.705,-5.527 5.884,-6.826 5.974,-8.59 5.974,-10.82 v -52.619 c 0,-1.297 -0.101,-2.415 -0.302,-3.348 C 5.471,-67.721 5.078,-68.576 4.497,-69.355 3.289,-71.068 1.789,-71.924 0,-71.924 v -3.039 h 32.553 v 3.039 c -0.851,0 -1.611,0.194 -2.282,0.584 -0.671,0.389 -1.253,0.869 -1.746,1.44 -0.492,0.572 -0.861,1.492 -1.107,2.763 -0.246,1.272 -0.369,2.66 -0.369,4.164 v 52.387 c 0,1.918 0.078,3.488 0.235,4.707 0.156,1.221 0.548,2.324 1.175,3.309 0.446,0.726 0.916,1.258 1.409,1.595 0.492,0.338 1.432,0.663 2.82,0.975 V 3.035 H 0 Z"
       style="display:inline;fill:#eb3c3e;fill-opacity:1;fill-rule:nonzero;stroke:none"
       id="path54"
       transform="matrix(0.35277777,0,0,-0.35277777,79.346528,42.938523)" />
    <path
       id="path3918"
       style="display:inline;fill:#eb3c3e;fill-opacity:1;fill-rule:nonzero;stroke:none"
       d="M 0,0 C 0.806,-0.156 1.409,-0.287 1.812,-0.391 2.93,-0.754 3.691,-1.246 4.094,-1.871 4.675,-2.805 5.089,-3.818 5.336,-4.91 5.581,-6 5.705,-7.947 5.705,-10.754 v -7.168 h -20.068 v 7.402 c 0,3.584 0.692,6.442 2.08,8.571 0.492,0.728 1.163,1.234 2.013,1.519 C -9.42,-0.145 -8.726,0 -8.188,0 V 3.039 H -40.54 V 0 c 1.029,-0.156 1.879,-0.402 2.551,-0.74 0.671,-0.338 1.275,-0.936 1.811,-1.793 0.537,-0.858 0.873,-1.701 1.007,-2.531 0.135,-0.832 0.202,-2.104 0.202,-3.819 v -1.092 l 0.134,-50.959 c 0,-1.712 -0.225,-3.519 -0.671,-5.414 -0.448,-1.898 -0.895,-3.078 -1.343,-3.547 -0.85,-0.83 -1.443,-1.337 -1.778,-1.519 -0.336,-0.182 -0.951,-0.377 -1.846,-0.584 v -2.961 H -8.39 v 3.039 c -1.836,0 -3.356,0.805 -4.564,2.412 -0.627,0.881 -1.019,1.737 -1.175,2.567 -0.157,0.83 -0.234,1.97 -0.234,3.421 v 37.651 H 5.57 v -37.805 c 0,-1.246 -0.1,-2.347 -0.301,-3.306 -0.202,-0.959 -0.571,-1.829 -1.108,-2.606 -1.119,-1.557 -2.617,-2.334 -4.497,-2.334 v -3.039 h 32.553 v 3.039 c -1.701,0 -3.043,0.57 -4.028,1.713 -0.492,0.623 -0.861,1.57 -1.107,2.84 -0.246,1.271 -0.369,2.66 -0.369,4.166 l -0.134,52.93 c 0,1.71 0.101,3.189 0.302,4.435 0.201,1.246 0.614,2.389 1.242,3.426 0.626,1.037 1.431,1.713 2.416,2.023 0.581,0.104 1.185,0.235 1.813,0.391 V 3.039 H 0 Z"
       transform="matrix(0.35277777,0,0,-0.35277777,66.673058,42.939899)" />
    <path
       id="path3921"
       style="display:inline;fill:#eb3c3e;fill-opacity:1;fill-rule:nonzero;stroke:none"
       d="M 0,0 C -0.892,-0.668 -1.815,-1.168 -2.772,-1.5 -3.731,-1.834 -4.477,-2.016 -5.012,-2.045 -5.546,-2.076 -6.147,-2.09 -6.815,-2.09 h -40.096 -1.938 c -0.089,0 -0.457,0.026 -1.102,0.08 -0.647,0.053 -1.148,0.16 -1.504,0.323 -0.892,0.48 -1.627,1.044 -2.205,1.687 l -4.812,-27.895 2.005,-0.484 c 0.402,1.822 1.27,4.02 2.607,6.592 1.112,2.144 2.226,3.779 3.34,4.904 2.228,2.143 4.299,3.658 6.215,4.543 1.915,0.883 4.21,1.326 6.883,1.326 v -57.345 c 0,-2.299 -0.09,-4.01 -0.266,-5.133 -0.179,-1.123 -0.736,-2.221 -1.671,-3.289 -1.561,-1.764 -3.208,-2.647 -4.946,-2.647 -0.401,0 -0.713,-0.027 -0.935,-0.08 v -3.055 h 36.62 v 3.135 c -1.426,0 -2.607,0.199 -3.542,0.602 -0.936,0.402 -1.793,1.191 -2.572,2.369 -0.781,1.178 -1.293,2.516 -1.537,4.016 -0.246,1.498 -0.368,3.185 -0.368,5.058 v 1.606 l -0.067,54.763 c 3.208,0 6.025,-0.711 8.453,-2.131 2.428,-1.419 4.689,-3.63 6.783,-6.632 1.871,-2.68 3.185,-5.627 3.943,-8.842 l 2.005,0.728 z"
       transform="matrix(0.35277777,0,0,-0.35277777,51.051248,39.914407)" />
    <path
       id="path3924"
       style="display:inline;fill:#eb3c3e;fill-opacity:1;fill-rule:nonzero;stroke:none"
       d="m 146.528,258.134 h 80.5 v 7.289 h -80.5 z"
       transform="matrix(0.35277777,0,0,-0.35277777,-51.69182,140.07747)" />
    <path
       id="path4804"
       transform="scale(0.26458333)"
       d="M 169.56641 25.060547 L 169.56641 29.207031 C 170.81441 29.207031 171.88472 29.472526 172.77539 30.005859 C 173.66606 30.537859 174.45272 31.511115 175.13672 32.925781 C 175.81939 34.343115 176.27891 36.926974 176.51758 40.681641 C 176.57628 41.882974 176.60547 43.581344 176.60547 45.777344 L 176.42969 115.35156 C 176.42969 117.75823 176.24991 119.70474 175.89258 121.19141 C 175.53658 122.68074 174.76479 123.99105 173.57812 125.12305 C 172.68749 125.97238 171.92869 126.55767 171.30469 126.875 C 170.68069 127.195 169.8648 127.35352 168.85547 127.35352 L 168.85547 131.50195 L 211.35547 131.50195 L 211.35547 127.35352 C 209.69147 126.92818 208.65295 126.60848 208.23828 126.39648 C 207.34628 125.90182 206.42528 124.94344 205.47461 123.52344 C 204.76261 122.4621 204.27191 121.20333 204.00391 119.75 C 203.73724 118.298 203.60352 116.43864 203.60352 114.16797 L 203.60352 84.181641 L 208.32617 81.523438 C 210.10884 84.430101 211.9048 87.370943 213.7168 90.349609 C 215.5288 93.325609 217.0288 96.055776 218.2168 98.537109 C 222.25546 107.18644 224.72066 112.67953 225.61133 115.01953 C 226.91799 118.49286 227.57227 121.18628 227.57227 123.09961 C 227.57227 124.51961 227.21395 125.4747 226.50195 125.9707 C 225.19529 126.89337 223.73939 127.46049 222.13672 127.67383 L 222.13672 131.50195 L 250.80859 131.50195 L 259.01953 131.50195 L 259.01953 120.36328 C 258.37553 118.82461 257.69594 117.03573 256.97461 114.92773 C 253.76661 105.44107 251.47995 99.313448 250.11328 96.550781 C 247.55861 91.453448 245.10767 86.866922 242.76367 82.794922 C 240.41567 78.724255 237.66948 74.313693 234.52148 69.568359 C 234.99615 69.568359 236.71745 68.541615 239.68945 66.488281 C 243.60945 63.726948 246.78666 60.718268 249.22266 57.460938 C 252.60799 52.856938 254.30078 47.936026 254.30078 42.693359 C 254.30078 42.129359 254.24238 41.207641 254.125 39.931641 C 253.59033 35.118307 251.49513 31.432766 247.8418 28.884766 C 244.1898 26.336766 238.88683 25.060547 231.9375 25.060547 L 169.56641 25.060547 z M 213.40625 36.4375 C 216.79158 36.4375 219.58196 37.360458 221.7793 39.203125 C 224.33263 41.329792 225.61133 44.237875 225.61133 47.921875 C 225.61133 53.237875 223.38435 58.201927 218.92969 62.808594 C 215.48435 66.35526 211.50357 69.047958 206.99023 70.890625 L 203.87305 72.060547 L 203.87305 45.371094 C 203.87305 43.600427 204.09568 42.057474 204.54102 40.744141 C 204.98635 39.433474 205.77106 38.495115 206.90039 37.925781 C 208.92039 36.933781 211.08892 36.4375 213.40625 36.4375 z "
       style="display:inline;fill:#eb3c3e;fill-opacity:1;fill-rule:nonzero;stroke:none;stroke-width:1.33333325" />
    <path
       transform="scale(0.26458333)"
       id="path4802"
       d="M 259.01953 120.36328 L 259.01953 131.50195 L 267.04297 131.50195 L 280.38867 131.50195 L 280.38867 127.56641 C 279.26067 127.35307 278.25135 126.94704 277.35938 126.3457 C 276.46871 125.74304 275.66708 124.80334 274.95508 123.52734 C 274.65641 122.96201 274.50977 121.93136 274.50977 120.44336 C 274.50977 117.39669 274.89649 114.59692 275.67383 112.04492 L 281.96289 90.441406 C 283.98556 90.441406 286.5564 90.777219 289.67773 91.449219 C 292.79907 92.121219 295.16224 92.881135 296.76758 93.730469 C 300.87158 95.922469 304.58668 99.245176 307.91602 103.70117 C 311.00668 107.80517 312.76235 111.51913 313.17969 114.8418 C 313.29835 115.5498 313.35742 116.53917 313.35742 117.8125 C 313.35742 121.6325 312.16764 124.39384 309.79297 126.08984 C 309.01964 126.58451 307.86236 127.00995 306.31836 127.36328 L 306.31836 131.50195 L 344.76562 131.50195 L 348.93164 131.50195 L 348.93164 125.94727 C 348.69164 125.7766 348.45131 125.60858 348.19531 125.39258 C 347.48331 124.79124 346.73942 123.74448 345.96875 122.25781 C 345.73008 121.76315 345.40233 121.0909 344.98633 120.24023 L 321.82227 37.279297 C 321.46627 36.005964 321.25655 35.297583 321.19922 35.15625 C 321.02055 34.44825 320.93164 33.810807 320.93164 33.244141 C 320.93164 32.678807 321.04844 32.111589 321.28711 31.544922 C 321.82178 30.342255 322.80123 29.740234 324.22656 29.740234 L 324.22656 25.060547 L 284.75586 25.060547 L 284.75586 29.101562 C 285.17053 29.242896 285.57232 29.418859 285.95898 29.630859 C 286.34432 29.844193 286.72857 30.289557 287.11523 30.962891 C 287.5019 31.636224 287.69531 32.468938 287.69531 33.460938 C 287.69531 34.170269 287.57522 34.948161 287.33789 35.798828 C 287.10056 36.649495 286.83373 37.501516 286.53906 38.353516 L 261.85547 113.95508 C 261.14214 116.29374 260.39762 118.11769 259.62695 119.42969 C 259.44695 119.73635 259.2422 120.04861 259.01953 120.36328 z M 295.00586 46.976562 L 304.98242 84.626953 C 303.85576 83.63362 302.40233 82.572167 300.625 81.4375 C 298.19433 79.9495 295.94247 78.849958 293.86914 78.140625 C 291.79447 77.432625 290.22487 77.042703 289.1582 76.970703 C 288.09287 76.902703 287.20223 76.865234 286.49023 76.865234 L 295.00586 46.976562 z "
       style="display:inline;fill:#eb3c3e;fill-opacity:1;fill-rule:nonzero;stroke:none;stroke-width:1.33333325" />
    <path
       transform="scale(0.26458333)"
       id="path4751"
       d="m 348.93164,125.94727 v 5.55468 h 3.54102 18.2207 v -4.14453 c -1.408,-0.28133 -2.55102,-0.72484 -3.42969,-1.32617 -0.88133,-0.60133 -1.56969,-1.46885 -2.06836,-2.60352 -0.49866,-1.132 -0.85069,-2.31797 -1.05469,-3.55664 -0.20799,-1.24 -0.30859,-2.74167 -0.30859,-4.51367 l 0.0899,-71.158201 40.9082,57.351561 c 2.37333,3.328 3.97402,5.94676 4.80469,7.85742 1.244,2.76134 1.86718,5.70174 1.86718,8.81641 0,4.67467 -1.45652,7.57698 -4.36718,8.70898 -0.77334,0.284 -1.54379,0.42383 -2.31446,0.42383 v 4.14453 h 26.9043 v -4.14648 c -1.24667,-0.13867 -2.38907,-0.54604 -3.42773,-1.2207 -1.03867,-0.67067 -1.84287,-1.5737 -2.40821,-2.70704 -0.56533,-1.13333 -0.93399,-2.46108 -1.11133,-3.98242 -0.18,-1.52266 -0.26757,-2.85237 -0.26757,-3.98437 V 44.710938 c 0,-1.981334 0.13239,-4.159251 0.40039,-6.53125 0.268,-2.373334 0.93519,-4.375287 2.00586,-6.001954 0.89066,-1.346666 1.86878,-2.195494 2.93945,-2.548828 0.71333,-0.142666 1.42534,-0.284448 2.13867,-0.425781 v -4.142578 h -26.9082 v 4.146484 c 1.44266,0.213334 2.65839,0.586521 3.65039,1.117188 0.992,0.530666 1.84702,1.381448 2.56836,2.550781 0.72133,1.169333 1.17094,2.253474 1.34961,3.244141 0.18,0.994666 0.27343,2.446041 0.27343,4.359375 v 1.27539 24.033203 l -17.9102,-26.796875 c -0.59334,-0.921333 -1.01072,-1.665041 -1.24805,-2.234375 -0.53333,-1.202666 -0.80078,-2.301588 -0.80078,-3.294921 0,-0.708 0.20767,-1.399553 0.625,-2.074219 0.41333,-0.672 0.84568,-1.203084 1.29102,-1.59375 0.44533,-0.389334 0.9633,-0.585938 1.55664,-0.585938 v -4.146484 h -50.96289 v 4.146484 c 2.196,0.357334 3.91996,1.34661 5.16796,2.97461 0.592,0.78 1.00743,2.196047 1.2461,4.248047 0.23733,2.054666 0.35742,4.213182 0.35742,6.478515 v 2.658203 65.115234 c 0,3.612 -0.26807,6.85075 -0.80273,9.71875 -0.512,2.744 -1.3503,4.58688 -2.51563,5.54688 z"
       style="display:inline;fill:#eb3c3e;fill-opacity:1;fill-rule:nonzero;stroke:none;stroke-width:1.33333325" />
  </g>
</svg>
