<svg id="n1" width="193.62mm" height="70.153mm" version="1.1" viewBox="0 0 193.62 70.153" xmlns="http://www.w3.org/2000/svg">
 <defs>
  <clipPath id="clipPath18">
   <path d="M 0,595.28 H 841.89 V 0 H 0 Z"/>
  </clipPath>
 </defs>
 <g transform="translate(-10.159 -99.394)" display="none">
  <a>
   <g transform="matrix(.35278 0 0 -.35278 -41.533 239.47)">
    <g clip-path="url(#clipPath18)">
     <g transform="translate(269.1 360.73)">
      <path d="m0 0c1.871-2.659 3.185-5.582 3.942-8.772l2.005 0.723-4.477 27.668c-0.892-0.662-1.816-1.158-2.774-1.488-0.958-0.332-1.704-0.511-2.238-0.541-0.535-0.029-1.136-0.045-1.805-0.045h-42.033c-0.09 0-0.457 0.026-1.102 0.08-0.647 0.053-1.148 0.16-1.503 0.318-0.892 0.479-1.627 1.037-2.205 1.676l-4.812-27.672 2.004-0.48c0.401 1.806 1.27 3.988 2.606 6.539 1.114 2.127 2.228 3.749 3.342 4.865 2.227 2.126 4.299 3.629 6.215 4.506 1.914 0.877 4.21 1.316 6.883 1.316v-56.888c0-2.281-0.09-3.977-0.268-5.092-0.178-1.113-0.735-2.201-1.671-3.262-1.559-1.751-3.207-2.625-4.944-2.625-0.401 0-0.714-0.027-0.936-0.08v-3.031h36.621v3.111c-1.427 0-2.607 0.197-3.542 0.596-0.936 0.399-1.794 1.182-2.574 2.35-0.779 1.169-1.292 2.497-1.536 3.984-0.246 1.486-0.368 3.159-0.368 5.018v1.593l-0.066 54.326c3.207 0 6.024-0.705 8.453-2.113 2.428-1.41 4.688-3.603 6.783-6.58" fill="#eb3c3e"/>
     </g>
     <g transform="translate(372 335.99)">
      <path d="m0 0c-1.823 1.116-3.512 1.94-5.067 2.472-1.556 0.531-2.734 0.824-3.534 0.878-0.799 0.051-1.466 0.079-2 0.079l6.386 22.416 7.482-28.238c-0.845 0.745-1.934 1.542-3.267 2.393m-61.272 13.972c-2.584-2.66-5.57-4.68-8.955-6.062l-2.338-0.877v20.017c0 1.328 0.167 2.485 0.501 3.47 0.334 0.983 0.923 1.686 1.77 2.113 1.515 0.744 3.141 1.116 4.879 1.116 2.539 0 4.633-0.691 6.281-2.073 1.915-1.595 2.873-3.777 2.873-6.54 0-3.987-1.67-7.709-5.011-11.164m113.82-51.52v3.108c-1.056 0.211-1.913 0.544-2.572 0.995-0.661 0.451-1.177 1.101-1.551 1.952-0.374 0.849-0.638 1.738-0.791 2.667-0.156 0.93-0.232 2.057-0.232 3.386l0.068 53.368 30.68-43.013c1.78-2.496 2.981-4.461 3.604-5.894 0.933-2.071 1.4-4.276 1.4-6.612 0-3.506-1.092-5.682-3.275-6.531-0.58-0.213-1.158-0.318-1.736-0.318v-3.108h20.179v3.109c-0.935 0.104-1.793 0.409-2.572 0.915-0.779 0.503-1.381 1.181-1.805 2.031s-0.701 1.846-0.834 2.987c-0.135 1.142-0.201 2.139-0.201 2.988v53.062c0 1.486 0.1 3.12 0.301 4.899 0.201 1.78 0.701 3.281 1.504 4.501 0.668 1.01 1.402 1.647 2.205 1.912 0.535 0.107 1.068 0.213 1.603 0.319v3.107h-20.181v-3.109c1.082-0.16 1.994-0.44 2.738-0.838s1.385-1.037 1.926-1.914 0.879-1.689 1.013-2.432c0.135-0.746 0.204-1.835 0.204-3.27v-18.981l-13.432 20.097c-0.445 0.691-0.758 1.249-0.936 1.676-0.4 0.902-0.601 1.726-0.601 2.471 0 0.531 0.156 1.05 0.469 1.556 0.31 0.504 0.634 0.902 0.968 1.195 0.334 0.292 0.723 0.44 1.168 0.44v3.109h-38.222v-3.109c1.647-0.268 2.94-1.01 3.876-2.231 0.444-0.585 0.756-1.648 0.935-3.187 0.178-1.541 0.268-3.16 0.268-4.859v-50.829c0-2.709-0.201-5.138-0.602-7.289-0.384-2.058-1.014-3.44-1.888-4.16-0.18 0.128-0.36 0.253-0.552 0.415-0.534 0.451-1.092 1.236-1.67 2.351-0.179 0.371-0.424 0.875-0.736 1.513l-17.374 62.221c-0.267 0.955-0.424 1.486-0.467 1.592-0.134 0.531-0.201 1.01-0.201 1.435 0 0.424 0.088 0.849 0.267 1.274 0.401 0.902 1.136 1.354 2.205 1.354v3.509h-29.603v-3.03c0.311-0.106 0.612-0.239 0.902-0.398 0.289-0.16 0.578-0.493 0.868-0.998s0.435-1.13 0.435-1.874c0-0.532-0.09-1.116-0.268-1.754s-0.379-1.276-0.6-1.915l-18.513-56.701c-0.535-1.754-1.093-3.123-1.671-4.107-0.135-0.23-0.289-0.464-0.456-0.7-0.483 1.154-0.992 2.496-1.533 4.077-2.406 7.115-4.121 11.71-5.146 13.782-1.916 3.823-3.754 7.263-5.512 10.317-1.761 3.053-3.821 6.361-6.182 9.92 0.356 0 1.647 0.77 3.876 2.31 2.94 2.071 5.323 4.328 7.15 6.771 2.539 3.453 3.809 7.144 3.809 11.076 0 0.423-0.045 1.114-0.133 2.071-0.401 3.61-1.972 6.374-4.712 8.285-2.739 1.911-6.716 2.868-11.928 2.868h-46.778v-3.109c0.936 0 1.738-0.199 2.406-0.599 0.668-0.399 1.258-1.129 1.771-2.19 0.512-1.063 0.857-3.001 1.036-5.817 0.044-0.901 0.066-2.175 0.066-3.822l-0.132-52.181c0-1.805-0.134-3.265-0.402-4.38-0.267-1.117-0.847-2.099-1.737-2.948-0.668-0.637-1.236-1.077-1.704-1.315-0.468-0.24-1.081-0.358-1.838-0.358v-3.111h31.876v3.111c-1.248 0.319-2.028 0.558-2.339 0.717-0.669 0.371-1.359 1.09-2.072 2.155-0.534 0.796-0.902 1.74-1.103 2.83-0.2 1.089-0.301 2.484-0.301 4.187v22.489l3.542 1.994c1.337-2.18 2.684-4.386 4.043-6.62 1.359-2.232 2.484-4.279 3.375-6.14 3.029-6.487 4.878-10.607 5.546-12.362 0.98-2.605 1.471-4.625 1.471-6.06 0-1.065-0.268-1.781-0.802-2.153-0.98-0.692-2.072-1.117-3.274-1.277v-2.871h43.689v2.951c-0.846 0.16-1.603 0.465-2.272 0.916-0.668 0.452-1.27 1.157-1.804 2.114-0.224 0.424-0.334 1.196-0.334 2.312 0 2.285 0.291 4.385 0.874 6.299l4.716 16.203c1.517 0 3.445-0.252 5.786-0.756s4.113-1.074 5.317-1.711c3.078-1.644 5.865-4.136 8.362-7.478 2.318-3.078 3.634-5.864 3.947-8.356 0.089-0.531 0.134-1.273 0.134-2.228 0-2.865-0.892-4.935-2.673-6.207-0.58-0.371-1.448-0.69-2.606-0.955v-3.104h34.615z" fill="#eb3c3e"/>
     </g>
     <g transform="translate(592.16 298.29)">
      <path d="m0 0c0.936-0.106 1.781-0.292 2.539-0.558l2.272-0.797 8.687 30.543-2.271 1.356c-0.758-3.508-2.539-7.15-5.346-10.926-2.496-3.402-5.102-6.034-7.818-7.894-1.829-1.224-3.844-2.207-6.049-2.952s-4.356-1.116-6.448-1.116c-1.916 0-3.609 0.331-5.08 0.997-1.468 0.664-2.605 1.66-3.408 2.991-0.801 1.328-1.314 2.604-1.537 3.828-0.223 1.222-0.334 2.711-0.334 4.465v26h8.555c0.978 0 2.181-0.36 3.607-1.077 1.426-0.718 2.695-1.663 3.811-2.832 1.111-1.17 2.115-2.765 3.006-4.785 0.712-1.648 1.158-3.004 1.337-4.066l2.54 0.478-4.479 30.385-2.004-0.719v-1.195c0-2.287-0.756-4.227-2.264-5.822-0.754-0.745-1.541-1.264-2.361-1.555-0.822-0.293-1.676-0.439-2.562-0.439h-9.385v8.693c0 1.646 0.187 3.082 0.568 4.307 0.377 1.222 1.035 2.258 1.971 3.109 1.426 1.277 3.631 1.914 6.615 1.914 2.674 0 5.391-0.531 8.152-1.594 2.762-1.064 5.147-2.633 7.151-4.706 3.474-3.669 5.724-8.134 6.75-13.397l2.205 1.993-4.879 26.956c-0.758-0.356-1.359-0.584-1.803-0.685-0.09 0-0.691-0.1-1.804-0.302-2.139-0.407-4.034-0.609-5.682-0.609h-45.307v-3.109c0.981 0 1.739-0.094 2.272-0.279 0.535-0.188 1.07-0.639 1.605-1.356 0.533-0.719 0.856-1.435 0.969-2.154 0.109-0.717 0.166-1.768 0.166-3.151v-57.499c0-1.649-0.1-2.991-0.301-4.028-0.199-1.036-0.658-2.06-1.369-3.07-0.535-0.692-0.992-1.156-1.371-1.395-0.379-0.24-1.236-0.492-2.572-0.758v-3.031h48.715c1.025 0 2.005-0.052 2.941-0.159" fill="#eb3c3e"/>
     </g>
     <g transform="translate(534.3 334.11)">
      <path d="m0 0c0 1.645 0.1 2.998 0.301 4.061 0.201 1.06 0.656 2.043 1.369 2.945 1.338 1.805 2.918 2.707 4.746 2.707v2.711h-32.01v-2.951h1.069c1.293 0 2.449-0.584 3.474-1.75 0.535-0.637 0.903-1.3 1.104-1.991 0.201-0.69 0.301-1.936 0.301-3.74v-19.018c0-3.13-0.581-5.625-1.739-7.482-1.381-2.176-3.519-3.262-6.414-3.262-6.506 0-11.762 3.879-15.771 11.643-3.432 6.592-5.145 13.902-5.145 21.932 0 0.637 0.01 1.169 0.033 1.594 0.022 0.425 0.055 0.878 0.1 1.357 0.623 7.814 2.34 14.195 5.146 19.14 3.385 5.954 7.997 8.931 13.832 8.931 3.743 0 7.997-1.307 12.764-3.924 1.914-1.069 3.83-2.964 5.746-5.686 2.496-3.525 4.121-6.569 4.879-9.131l1.67 1.039-2.738 27.432c-0.803-0.745-1.582-1.489-2.34-2.233-0.981-0.638-2.25-0.957-3.809-0.957-1.381 0-2.896 0.211-4.545 0.638-3.207 0.798-6.058 1.368-8.552 1.715-2.496 0.344-5.168 0.518-8.02 0.518-5.258 0-10.09-0.785-14.5-2.353-4.412-1.569-8.287-4.055-11.629-7.456-2.494-2.596-4.521-5.505-6.097-8.716v-40.307c1.095-2.569 2.388-5 3.892-7.281 4.098-6.221 9.112-10.527 15.035-12.92 4.768-1.914 11.16-2.871 19.18-2.871h33.412v3.025c-1.068 0.319-1.883 0.676-2.439 1.075-0.557 0.398-1.059 1.074-1.502 2.03-0.448 0.954-0.715 1.884-0.803 2.786v3.025z" fill="#eb3c3e"/>
     </g>
     <g transform="translate(151.66 280.22)" fill="#eb3c3e">
      <path d="m0 0c0.446 0.1 1.013 0.148 1.697 0.148 4.998-0.798 9.892-1.599 14.68-2.398 4.787-0.801 9.102-1.201 12.943-1.201 4.787 0 14.158 1.068 19.419 3.201 6.419 2.6 10.981 6.264 14.875 10.998 4.736 5.801 7.25 12.766 7.25 20.898 0 6.18-1.385 12.3-4.803 17.508-1.457 2.219-3.375 4.061-5.54 5.575-3.951 2.759-8.478 4.497-12.997 6.082-5.172 1.815-10.304 3.718-15.442 5.633-3.611 1.347-7.325 2.056-10.142 4.944-4.122 4.227-3.001 11.124 0.783 15.183 1.756 1.885 4.829 3.351 7.295 3.934 8.962 2.118 15.346-2.053 23.596-10.053 1.944-1.886 4-6.125 4-6.125l4.583 25.75c-0.526-0.335-2.718-1.766-3.666-2.5-1.765-1.366-4.727 0.403-6.482 1.038-2.367 0.856-4.777 1.592-7.225 2.18-4.922 1.18-9.971 1.746-15.031 1.746-3.969 0-8.296-0.291-12.16-1.19-2.838-0.662-5.862-2.093-8.375-3.542-8.145-4.696-12.041-13.036-13.795-21.932-1.073-5.445-0.768-11.074 1.466-16.199 3.175-7.286 8.814-13.476 16.212-16.532 0 0 25.222-8.402 25.223-8.402 1.821-0.607 3.933-2.39 5.043-3.926 4.003-5.533 2.065-14.737-2.864-19.052-7.731-6.77-21.643-4.272-29.271 1.464-4.182 3.147-6.392 7.883-8.178 12.659-0.105 0.277-2.001 5.521-1.897 5.521h-3.75l-2.583-34.861c0.578 0.535 2.952 2.051 3.558 2.551 0.604 0.5 1.131 0.798 1.578 0.9"/>
      <path d="m0 0c0.446 0.1 1.013 0.148 1.697 0.148 4.998-0.798 9.892-1.599 14.68-2.398 4.787-0.801 9.102-1.201 12.943-1.201 4.787 0 14.158 1.068 19.419 3.201 6.419 2.6 10.981 6.264 14.875 10.998 4.736 5.801 7.25 12.766 7.25 20.898 0 6.18-1.385 12.3-4.803 17.508-1.457 2.219-3.375 4.061-5.54 5.575-3.951 2.759-8.478 4.497-12.997 6.082-5.172 1.815-10.304 3.718-15.442 5.633-3.611 1.347-7.325 2.056-10.142 4.944-4.122 4.227-3.001 11.124 0.783 15.183 1.756 1.885 4.829 3.351 7.295 3.934 8.962 2.118 15.346-2.053 23.596-10.053 1.944-1.886 4-6.125 4-6.125l4.583 25.75c-0.526-0.335-2.718-1.766-3.666-2.5-1.765-1.366-4.727 0.403-6.482 1.038-2.367 0.856-4.777 1.592-7.225 2.18-4.922 1.18-9.971 1.746-15.031 1.746-3.969 0-8.296-0.291-12.16-1.19-2.838-0.662-5.862-2.093-8.375-3.542-8.145-4.696-12.041-13.036-13.795-21.932-1.073-5.445-0.768-11.074 1.466-16.199 3.175-7.286 8.814-13.476 16.212-16.532 0 0 25.222-8.402 25.223-8.402 1.821-0.607 3.933-2.39 5.043-3.926 4.003-5.533 2.065-14.737-2.864-19.052-7.731-6.77-21.643-4.272-29.271 1.464-4.182 3.147-6.392 7.883-8.178 12.659-0.105 0.277-2.001 5.521-1.897 5.521h-3.75l-2.583-34.861c0.578 0.535 2.952 2.051 3.558 2.551 0.604 0.5 1.131 0.798 1.578 0.9"/>
     </g>
     <g transform="translate(291.24 283.93)">
      <path d="m0 0c-0.892-0.668-1.815-1.168-2.772-1.5-0.959-0.334-1.705-0.516-2.24-0.545-0.534-0.031-1.135-0.045-1.803-0.045h-42.034c-0.089 0-0.457 0.026-1.102 0.08-0.647 0.053-1.148 0.16-1.504 0.323-0.892 0.48-1.627 1.044-2.205 1.687l-4.812-27.895 2.005-0.484c0.402 1.822 1.27 4.02 2.607 6.592 1.112 2.144 2.226 3.779 3.34 4.904 2.228 2.143 4.299 3.658 6.215 4.543 1.915 0.883 4.21 1.326 6.883 1.326v-57.345c0-2.299-0.09-4.01-0.266-5.133-0.179-1.123-0.736-2.221-1.671-3.289-1.561-1.764-3.208-2.647-4.946-2.647-0.401 0-0.713-0.027-0.935-0.08v-3.055h36.62v3.135c-1.426 0-2.607 0.199-3.542 0.602-0.936 0.402-1.793 1.191-2.572 2.369-0.781 1.178-1.293 2.516-1.537 4.016-0.246 1.498-0.368 3.185-0.368 5.058v1.606l-0.067 54.763c3.208 0 6.025-0.711 8.453-2.131 2.428-1.419 4.689-3.63 6.783-6.632 1.871-2.68 3.185-5.627 3.943-8.842l2.005 0.728z" fill="#eb3c3e"/>
     </g>
     <g transform="translate(335.52 275.35)">
      <path d="m0 0c0.806-0.156 1.409-0.287 1.812-0.391 1.118-0.363 1.879-0.855 2.282-1.48 0.581-0.934 0.995-1.947 1.242-3.039 0.245-1.09 0.369-3.037 0.369-5.844v-7.168h-20.068v7.402c0 3.584 0.692 6.442 2.08 8.571 0.492 0.728 1.163 1.234 2.013 1.519s1.544 0.43 2.082 0.43v3.039h-32.352v-3.039c1.029-0.156 1.879-0.402 2.551-0.74 0.671-0.338 1.275-0.936 1.811-1.793 0.537-0.858 0.873-1.701 1.007-2.531 0.135-0.832 0.202-2.104 0.202-3.819v-1.092l0.134-50.959c0-1.712-0.225-3.519-0.671-5.414-0.448-1.898-0.895-3.078-1.343-3.547-0.85-0.83-1.443-1.337-1.778-1.519-0.336-0.182-0.951-0.377-1.846-0.584v-2.961h32.083v3.039c-1.836 0-3.356 0.805-4.564 2.412-0.627 0.881-1.019 1.737-1.175 2.567-0.157 0.83-0.234 1.97-0.234 3.421v37.651h19.933v-37.805c0-1.246-0.1-2.347-0.301-3.306-0.202-0.959-0.571-1.829-1.108-2.606-1.119-1.557-2.617-2.334-4.497-2.334v-3.039h32.553v3.039c-1.701 0-3.043 0.57-4.028 1.713-0.492 0.623-0.861 1.57-1.107 2.84-0.246 1.271-0.369 2.66-0.369 4.166l-0.134 52.93c0 1.71 0.101 3.189 0.302 4.435s0.614 2.389 1.242 3.426c0.626 1.037 1.431 1.713 2.416 2.023 0.581 0.104 1.185 0.235 1.813 0.391v3.035h-32.352z" fill="#eb3c3e"/>
     </g>
     <g transform="translate(468.06 206.31)">
      <path d="m0 0c-0.426 0.83-0.705 1.803-0.838 2.918-0.135 1.115-0.201 2.09-0.201 2.92v51.844c0 1.451 0.1 3.048 0.301 4.787 0.201 1.738 0.705 3.203 1.509 4.396 0.672 0.987 1.411 1.61 2.215 1.869l1.612 0.311v3.037h-20.27v-3.039c1.086-0.156 2.004-0.43 2.75-0.818 0.746-0.391 1.391-1.014 1.936-1.871 0.543-0.856 0.881-1.649 1.017-2.375 0.135-0.729 0.203-1.793 0.203-3.196v-18.545l-13.49 19.637c-0.447 0.674-0.762 1.219-0.939 1.635-0.405 0.883-0.606 1.687-0.606 2.416 0 0.519 0.156 1.025 0.471 1.519 0.312 0.493 0.637 0.883 0.973 1.168s0.726 0.43 1.175 0.43v3.039h-38.392v-3.039c1.655-0.262 2.953-0.986 3.893-2.18 0.447-0.57 0.76-1.609 0.94-3.113 0.178-1.506 0.268-3.088 0.268-4.748v-49.662c0-2.647-0.201-5.02-0.604-7.121-0.402-2.102-1.073-3.49-2.014-4.164-0.537-0.364-0.963-0.584-1.275-0.662-0.314-0.079-0.896-0.17-1.745-0.274v-3.035h19.531v3.035c-1.06 0.207-1.921 0.533-2.584 0.973-0.662 0.441-1.182 1.076-1.557 1.906-0.375 0.832-0.64 1.699-0.795 2.607-0.155 0.909-0.231 2.01-0.231 3.309l0.066 52.143 30.818-42.026c1.785-2.439 2.992-4.359 3.617-5.76 0.937-2.023 1.406-4.175 1.406-6.458 0-3.426-1.096-5.553-3.289-6.381-0.582-0.209-1.164-0.313-1.744-0.313v-3.035h20.269v3.037c-0.939 0.102-1.8 0.4-2.584 0.893-0.783 0.494-1.386 1.156-1.812 1.986" fill="#eb3c3e"/>
     </g>
     <g transform="translate(591.54 246.68)">
      <path d="m0 0-16.107 6c-2.819 1.037-4.901 2.389-6.243 4.051-1.074 1.349-1.611 2.883-1.611 4.597 0 1.143 0.156 2.233 0.471 3.272 0.178 0.625 0.469 1.351 0.873 2.182 0.625 1.351 1.586 2.351 2.885 3 1.296 0.65 2.82 0.974 4.564 0.974 2.014 0 4.117-0.416 6.309-1.246 2.193-0.832 4.138-1.924 5.839-3.273 2.104-1.662 4.049-4.442 5.84-8.338 0.76-1.61 1.207-2.805 1.342-3.584l2.416 0.857-2.281 25.324c-0.447-0.261-1.074-0.675-1.879-1.246-1.074-0.625-2.104-1.091-3.088-1.404-0.135-0.051-0.381-0.076-0.738-0.076-3.043 0.674-5.996 1.349-8.86 2.025-2.865 0.674-5.461 1.012-7.787 1.012-1.789 0-3.49-0.182-5.099-0.545-6.623-1.559-11.971-4.441-16.043-8.648-4.563-4.729-6.846-10.495-6.846-17.299 0-4.936 1.297-9.143 3.893-12.623 2.371-3.168 5.683-5.559 9.933-7.168l17.721-6.78c1.609-0.623 2.896-1.648 3.859-3.078 0.961-1.427 1.444-3.103 1.444-5.025 0-0.832-0.047-1.481-0.135-1.947-0.537-3.118-2.014-5.534-4.43-7.246-2.416-1.715-5.326-2.573-8.726-2.573-3.088 0-6.254 0.78-9.496 2.338-3.247 1.559-6.053 3.791-8.424 6.701-1.657 2.026-3.112 4.78-4.364 8.26-0.984 2.699-1.543 4.83-1.677 6.389l-2.416-0.311 2.617-32.26c0.492 0.417 0.996 0.819 1.51 1.209 0.513 0.389 0.963 0.624 1.343 0.702 0.379 0.076 0.86 0.115 1.442 0.115 4.252-0.623 8.412-1.246 12.484-1.869s7.742-0.936 11.008-0.936c4.072 0 8.346 0.832 12.82 2.494 5.459 2.026 9.844 4.881 13.155 8.571 4.027 4.519 6.041 9.947 6.041 16.285 0 5.299-1.198 9.74-3.59 13.324-2.395 3.584-5.717 6.182-9.969 7.793" fill="#eb3c3e"/>
     </g>
     <g transform="translate(538.11 206.52)">
      <path d="m0 0c-0.447 0.955-0.715 1.885-0.803 2.787v26.75c0 1.645 0.1 2.998 0.301 4.059 0.201 1.062 0.656 2.045 1.369 2.947 1.338 1.803 2.918 2.705 4.746 2.705v2.713h-32.009v-2.951h1.068c1.293 0 2.449-0.584 3.474-1.752 0.536-0.637 0.903-1.299 1.104-1.988 0.201-0.692 0.301-1.938 0.301-3.741v-19.019c0-3.131-0.58-5.625-1.738-7.481-1.381-2.175-3.52-3.263-6.415-3.263-6.505 0-11.761 3.88-15.771 11.644-3.432 6.592-5.145 13.902-5.145 21.932 0 0.637 0.01 1.168 0.034 1.594 0.021 0.425 0.054 0.877 0.099 1.355 0.623 7.816 2.34 14.195 5.147 19.141 3.384 5.953 7.996 8.931 13.832 8.931 3.742 0 7.996-1.308 12.763-3.924 1.914-1.068 3.83-2.964 5.747-5.687 2.496-3.523 4.121-6.568 4.878-9.129l1.67 1.039-2.738 27.432c-0.803-0.746-1.582-1.49-2.34-2.235-0.98-0.636-2.25-0.957-3.808-0.957-1.381 0-2.897 0.213-4.545 0.639-3.207 0.797-6.059 1.369-8.553 1.715-2.496 0.346-5.168 0.517-8.02 0.517-5.257 0-10.089-0.785-14.5-2.351-4.412-1.568-8.287-4.055-11.628-7.457-2.495-2.596-4.522-5.504-6.098-8.715v-40.309c1.096-2.568 2.389-4.998 3.892-7.279 4.098-6.221 9.112-10.527 15.036-12.92 4.767-1.914 11.16-2.871 19.179-2.871h33.412v3.025c-1.068 0.319-1.882 0.676-2.439 1.075-0.557 0.396-1.059 1.074-1.502 2.029" fill="#eb3c3e"/>
     </g>
     <g fill="#eb3c3e">
      <path d="m146.53 258.13h80.5v7.289h-80.5z"/>
      <path d="m601.86 258.13h93.5v7.289h-93.5z"/>
      <path d="m683.7 397.07h-537.17v-6.603h537.17z"/>
     </g>
    </g>
   </g>
  </a>
 </g>
 <g>
  <path id="n1" transform="scale(.26458)" d="m348.93 125.95v5.5547h21.762v-4.1445c-1.408-0.28133-2.551-0.72484-3.4297-1.3262-0.88133-0.60133-1.5697-1.4688-2.0684-2.6035-0.49866-1.132-0.85069-2.318-1.0547-3.5566-0.20799-1.24-0.30859-2.7417-0.30859-4.5137l0.0899-71.158 40.908 57.352c2.3733 3.328 3.974 5.9468 4.8047 7.8574 1.244 2.7613 1.8672 5.7017 1.8672 8.8164 0 4.6747-1.4565 7.577-4.3672 8.709-0.77334 0.284-1.5438 0.42383-2.3145 0.42383v4.1445h26.904v-4.1465c-1.2467-0.13867-2.3891-0.54604-3.4277-1.2207-1.0387-0.67067-1.8429-1.5737-2.4082-2.707-0.56533-1.1333-0.93399-2.4611-1.1113-3.9824-0.18-1.5227-0.26757-2.8524-0.26757-3.9844v-70.75c0-1.9813 0.13239-4.1593 0.40039-6.5312 0.268-2.3733 0.93519-4.3753 2.0059-6.002 0.89066-1.3467 1.8688-2.1955 2.9394-2.5488 0.71333-0.14267 1.4253-0.28445 2.1387-0.42578v-4.1426h-26.908v4.1465c1.4427 0.21333 2.6584 0.58652 3.6504 1.1172 0.992 0.53067 1.847 1.3814 2.5684 2.5508 0.72133 1.1693 1.1709 2.2535 1.3496 3.2441 0.18 0.99467 0.27343 2.446 0.27343 4.3594v25.309l-17.91-26.797c-0.59334-0.92133-1.0107-1.665-1.248-2.2344-0.53333-1.2027-0.80078-2.3016-0.80078-3.2949 0-0.708 0.20767-1.3996 0.625-2.0742 0.41333-0.672 0.84568-1.2031 1.291-1.5938 0.44533-0.38933 0.9633-0.58594 1.5566-0.58594v-4.1465h-50.963v4.1465c2.196 0.35733 3.92 1.3466 5.168 2.9746 0.592 0.78 1.0074 2.196 1.2461 4.248 0.23733 2.0547 0.35742 4.2132 0.35742 6.4785v67.773c0 3.612-0.26807 6.8508-0.80273 9.7188-0.512 2.744-1.3503 4.5869-2.5156 5.5469z" fill="#eb3c3e"/>
 </g>
</svg>
